<svg width="15" height="15" viewBox="0 0 15 15" fill="none" xmlns="http://www.w3.org/2000/svg">
<path d="M10.5329 2.45024V1.52823C10.5329 1.28591 10.332 1.08496 10.0896 1.08496C9.84731 1.08496 9.64636 1.28591 9.64636 1.52823V2.41478H5.80467V1.52823C5.80467 1.28591 5.60372 1.08496 5.3614 1.08496C5.11907 1.08496 4.91812 1.28591 4.91812 1.52823V2.45024C3.32234 2.598 2.54809 3.54955 2.42989 4.96212C2.41807 5.13351 2.55992 5.27536 2.7254 5.27536H12.7256C12.897 5.27536 13.0389 5.1276 13.0211 4.96212C12.9029 3.54955 12.1287 2.598 10.5329 2.45024Z" fill="#CBD0DC"/>
<path d="M12.4542 6.16211H2.99777C2.6727 6.16211 2.40674 6.42807 2.40674 6.75314V10.3939C2.40674 12.167 3.29328 13.349 5.36189 13.349H10.0901C12.1587 13.349 13.0453 12.167 13.0453 10.3939V6.75314C13.0453 6.42807 12.7793 6.16211 12.4542 6.16211ZM6.07703 11.109C6.04748 11.1327 6.01793 11.1622 5.98838 11.18C5.95292 11.2036 5.91746 11.2213 5.88199 11.2331C5.84653 11.2509 5.81107 11.2627 5.77561 11.2686C5.73424 11.2745 5.69877 11.2804 5.6574 11.2804C5.58057 11.2804 5.50373 11.2627 5.43281 11.2331C5.35598 11.2036 5.29687 11.1622 5.23777 11.109C5.13139 10.9967 5.06637 10.8431 5.06637 10.6894C5.06637 10.5357 5.13139 10.3821 5.23777 10.2698C5.29687 10.2166 5.35598 10.1752 5.43281 10.1456C5.5392 10.0984 5.6574 10.0865 5.77561 10.1102C5.81107 10.1161 5.84653 10.1279 5.88199 10.1456C5.91746 10.1575 5.95292 10.1752 5.98838 10.1988C6.01793 10.2225 6.04748 10.2461 6.07703 10.2698C6.18342 10.3821 6.24843 10.5357 6.24843 10.6894C6.24843 10.8431 6.18342 10.9967 6.07703 11.109ZM6.07703 9.04042C5.96474 9.14681 5.81107 9.21182 5.6574 9.21182C5.50373 9.21182 5.35007 9.14681 5.23777 9.04042C5.13139 8.92813 5.06637 8.77446 5.06637 8.62079C5.06637 8.46713 5.13139 8.31346 5.23777 8.20116C5.40326 8.03567 5.66331 7.98248 5.88199 8.07705C5.95883 8.1066 6.02384 8.14797 6.07703 8.20116C6.18342 8.31346 6.24843 8.46713 6.24843 8.62079C6.24843 8.77446 6.18342 8.92813 6.07703 9.04042ZM8.14564 11.109C8.03334 11.2154 7.87967 11.2804 7.72601 11.2804C7.57234 11.2804 7.41867 11.2154 7.30638 11.109C7.19999 10.9967 7.13498 10.8431 7.13498 10.6894C7.13498 10.5357 7.19999 10.3821 7.30638 10.2698C7.52506 10.0511 7.92696 10.0511 8.14564 10.2698C8.25202 10.3821 8.31704 10.5357 8.31704 10.6894C8.31704 10.8431 8.25202 10.9967 8.14564 11.109ZM8.14564 9.04042C8.11609 9.06407 8.08653 9.08771 8.05698 9.11135C8.02152 9.13499 7.98606 9.15272 7.9506 9.16454C7.91514 9.18227 7.87967 9.19409 7.84421 9.2C7.80284 9.20591 7.76738 9.21182 7.72601 9.21182C7.57234 9.21182 7.41867 9.14681 7.30638 9.04042C7.19999 8.92813 7.13498 8.77446 7.13498 8.62079C7.13498 8.46713 7.19999 8.31346 7.30638 8.20116C7.35957 8.14797 7.42458 8.1066 7.50141 8.07705C7.7201 7.98248 7.98015 8.03567 8.14564 8.20116C8.25202 8.31346 8.31704 8.46713 8.31704 8.62079C8.31704 8.77446 8.25202 8.92813 8.14564 9.04042ZM10.2142 11.109C10.1019 11.2154 9.94828 11.2804 9.79461 11.2804C9.64094 11.2804 9.48727 11.2154 9.37498 11.109C9.26859 10.9967 9.20358 10.8431 9.20358 10.6894C9.20358 10.5357 9.26859 10.3821 9.37498 10.2698C9.59366 10.0511 9.99556 10.0511 10.2142 10.2698C10.3206 10.3821 10.3856 10.5357 10.3856 10.6894C10.3856 10.8431 10.3206 10.9967 10.2142 11.109ZM10.2142 9.04042C10.1847 9.06407 10.1551 9.08771 10.1256 9.11135C10.0901 9.13499 10.0547 9.15272 10.0192 9.16454C9.98374 9.18227 9.94828 9.19409 9.91282 9.2C9.87144 9.20591 9.83007 9.21182 9.79461 9.21182C9.64094 9.21182 9.48727 9.14681 9.37498 9.04042C9.26859 8.92813 9.20358 8.77446 9.20358 8.62079C9.20358 8.46713 9.26859 8.31346 9.37498 8.20116C9.43408 8.14797 9.49319 8.1066 9.57002 8.07705C9.6764 8.02976 9.79461 8.01794 9.91282 8.04158C9.94828 8.04749 9.98374 8.05931 10.0192 8.07705C10.0547 8.08887 10.0901 8.1066 10.1256 8.13024C10.1551 8.15388 10.1847 8.17752 10.2142 8.20116C10.3206 8.31346 10.3856 8.46713 10.3856 8.62079C10.3856 8.77446 10.3206 8.92813 10.2142 9.04042Z" fill="#CBD0DC"/>
</svg>
