<svg width="40" height="40" viewBox="0 0 40 40" fill="none" xmlns="http://www.w3.org/2000/svg">
<path d="M34.1105 21.5571V10.7102C34.1105 10.0033 33.8297 9.32543 33.3299 8.82562C32.8301 8.3258 32.1522 8.045 31.4454 8.045H26.0187V6.49085C26.0187 5.96285 25.8089 5.45647 25.4356 5.08311C25.0622 4.70975 24.5558 4.5 24.0278 4.5H15.936C15.408 4.5 14.9016 4.70975 14.5282 5.08311C14.1549 5.45647 13.9451 5.96285 13.9451 6.49085V8.045H8.51844C7.81159 8.045 7.13369 8.3258 6.63388 8.82562C6.13406 9.32543 5.85327 10.0033 5.85327 10.7102V21.5571C3.34222 22.7003 2 24.126 2 25.693C2 29.771 10.3937 32.0444 18.6975 32.2564L16.058 34.6582C15.9433 34.7751 15.8776 34.9314 15.8744 35.0951C15.8711 35.2588 15.9305 35.4176 16.0404 35.539C16.1503 35.6604 16.3024 35.7352 16.4656 35.7482C16.6289 35.7611 16.7909 35.7112 16.9186 35.6087L20.1296 32.6738C20.2695 32.5451 20.3812 32.3887 20.4577 32.2146C20.5341 32.0405 20.5735 31.8524 20.5735 31.6623C20.5735 31.4722 20.5341 31.2841 20.4577 31.11C20.3812 30.9359 20.2695 30.7795 20.1296 30.6508L16.9186 27.7223C16.7909 27.6198 16.6289 27.5699 16.4656 27.5829C16.3024 27.5958 16.1503 27.6707 16.0404 27.792C15.9305 27.9134 15.8711 28.0722 15.8744 28.2359C15.8776 28.3996 15.9433 28.5559 16.058 28.6728L18.5883 30.9719C9.51387 30.7279 3.28442 28.082 3.28442 25.693C3.28442 24.781 4.21563 23.8177 5.85327 22.9764C5.88623 23.6596 6.18064 24.3041 6.67555 24.7763C7.17046 25.2485 7.82798 25.5123 8.51202 25.5131H31.4389C32.1252 25.5156 32.786 25.2532 33.2836 24.7807C33.7813 24.3082 34.0775 23.6619 34.1105 22.9764C40.4235 26.3287 34.0206 29.3985 26.8279 30.5031C26.6575 30.5159 26.4993 30.5958 26.3879 30.7253C26.2765 30.8547 26.2211 31.0232 26.2338 31.1935C26.2466 31.3638 26.3265 31.5221 26.456 31.6335C26.5855 31.7449 26.7539 31.8003 26.9242 31.7875C36.1078 30.6059 42.4593 25.6673 34.1105 21.5571ZM8.51844 9.35511H31.4454C31.8072 9.35505 32.1545 9.49699 32.4127 9.7504C32.671 10.0038 32.8194 10.3485 32.8261 10.7102V16.6121H29.8334C29.1964 16.6121 28.5855 16.8652 28.135 17.3156C27.6846 17.766 27.4315 18.377 27.4315 19.014C27.4324 19.1613 27.4041 19.3073 27.3483 19.4436C27.2926 19.5799 27.2104 19.7038 27.1065 19.8083C27.0027 19.9127 26.8792 19.9956 26.7432 20.0522C26.6072 20.1087 26.4614 20.1378 26.3141 20.1378H24.593C25.3046 19.1676 25.6871 17.9951 25.6847 16.7919C25.6847 15.2788 25.0841 13.8276 24.0148 12.7571C22.9455 11.6866 21.495 11.0844 19.9819 11.0827C15.3901 11.012 12.6157 16.4901 15.3708 20.125H13.6497C13.352 20.1224 13.0667 20.0051 12.8534 19.7975C12.7509 19.6944 12.6699 19.5722 12.6148 19.4377C12.5597 19.3033 12.5316 19.1593 12.5323 19.014C12.5323 18.377 12.2792 17.766 11.8288 17.3156C11.3783 16.8652 10.7674 16.6121 10.1304 16.6121H7.13769V10.7102C7.13769 10.344 7.28316 9.99278 7.5421 9.73384C7.80104 9.4749 8.15224 9.32943 8.51844 9.32943V9.35511ZM31.4454 24.2544H8.51844C8.33493 24.2544 8.15326 24.2179 7.98405 24.1469C7.81483 24.0759 7.66146 23.9719 7.5329 23.841C7.40435 23.71 7.30318 23.5547 7.23532 23.3842C7.16747 23.2138 7.13427 23.0314 7.13769 22.848V17.8965H10.1304C10.4268 17.8965 10.711 18.0143 10.9205 18.2238C11.1301 18.4334 11.2478 18.7176 11.2478 19.014C11.2495 19.6511 11.5029 20.2617 11.9528 20.7128C12.4027 21.1638 13.0126 21.4189 13.6497 21.4223H16.6617C17.6314 22.112 18.7919 22.4826 19.9819 22.4826C21.1719 22.4826 22.3324 22.112 23.3021 21.4223H26.3141C26.9495 21.4206 27.5585 21.1679 28.0084 20.7192C28.4582 20.2705 28.7126 19.6622 28.716 19.0268C28.7151 18.8798 28.7434 18.7341 28.7993 18.5982C28.8552 18.4622 28.9374 18.3387 29.0414 18.2348C29.1453 18.1308 29.2688 18.0485 29.4048 17.9927C29.5407 17.9368 29.6864 17.9085 29.8334 17.9094H32.8261V22.8608C32.8227 23.2248 32.6758 23.5727 32.4172 23.8289C32.1586 24.085 31.8093 24.2287 31.4454 24.2287V24.2544Z" fill="#FF7A2C"/>
<path d="M28.9731 15.3982C29.5694 15.3669 30.1309 15.108 30.5419 14.6748C30.9529 14.2416 31.182 13.6673 31.182 13.0702C31.182 12.4731 30.9529 11.8988 30.5419 11.4656C30.1309 11.0325 29.5694 10.7735 28.9731 10.7422C28.3768 10.7735 27.8153 11.0325 27.4043 11.4656C26.9933 11.8988 26.7642 12.4731 26.7642 13.0702C26.7642 13.6673 26.9933 14.2416 27.4043 14.6748C27.8153 15.108 28.3768 15.3669 28.9731 15.3982Z" fill="#FF7A2C"/>
<path d="M9.19299 14.1013H11.8903C12.0606 14.1013 12.224 14.0337 12.3444 13.9132C12.4648 13.7928 12.5325 13.6294 12.5325 13.4591C12.5325 13.2888 12.4648 13.1254 12.3444 13.005C12.224 12.8846 12.0606 12.8169 11.8903 12.8169H9.19299C9.02267 12.8169 8.85932 12.8846 8.73888 13.005C8.61844 13.1254 8.55078 13.2888 8.55078 13.4591C8.55078 13.6294 8.61844 13.7928 8.73888 13.9132C8.85932 14.0337 9.02267 14.1013 9.19299 14.1013Z" fill="#FF7A2C"/>
</svg>
