<svg width="15" height="15" viewBox="0 0 15 15" fill="none" xmlns="http://www.w3.org/2000/svg">
<path d="M13.1165 4.58754C13.1165 4.97762 12.7973 5.29677 12.4073 5.29677H2.00513C1.61505 5.29677 1.2959 4.97762 1.2959 4.58754V4.58163C1.2959 3.22817 2.3893 2.13477 3.74276 2.13477H10.6637C12.0172 2.13477 13.1165 3.23408 13.1165 4.58754Z" fill="#FF7A2C"/>
<path d="M1.2959 6.89283V9.85389C1.2959 11.2073 2.3893 12.3008 3.74276 12.3008H10.6637C12.0172 12.3008 13.1165 11.2014 13.1165 9.84798V6.89283C13.1165 6.50275 12.7973 6.18359 12.4073 6.18359H2.00513C1.61505 6.18359 1.2959 6.50275 1.2959 6.89283ZM4.84208 10.3208H3.66002C3.4177 10.3208 3.21675 10.1199 3.21675 9.87753C3.21675 9.63521 3.4177 9.43426 3.66002 9.43426H4.84208C5.0844 9.43426 5.28535 9.63521 5.28535 9.87753C5.28535 10.1199 5.0844 10.3208 4.84208 10.3208ZM8.68377 10.3208H6.31965C6.07733 10.3208 5.87638 10.1199 5.87638 9.87753C5.87638 9.63521 6.07733 9.43426 6.31965 9.43426H8.68377C8.92609 9.43426 9.12704 9.63521 9.12704 9.87753C9.12704 10.1199 8.92609 10.3208 8.68377 10.3208Z" fill="#FF7A2C"/>
</svg>
