<svg width="20" height="21" viewBox="0 0 20 21" fill="none" xmlns="http://www.w3.org/2000/svg">
<path d="M11.1646 8.27561H1.96886C1.64101 8.27561 1.36914 8.00374 1.36914 7.67589C1.36914 7.34805 1.64101 7.07617 1.96886 7.07617H11.1646C11.4924 7.07617 11.7643 7.34805 11.7643 7.67589C11.7643 8.00374 11.4924 8.27561 11.1646 8.27561Z" fill="#24252B"/>
<path d="M6.76636 14.6721H5.1671C4.83926 14.6721 4.56738 14.4002 4.56738 14.0724C4.56738 13.7445 4.83926 13.4727 5.1671 13.4727H6.76636C7.09421 13.4727 7.36608 13.7445 7.36608 14.0724C7.36608 14.4002 7.09421 14.6721 6.76636 14.6721Z" fill="#24252B"/>
<path d="M11.9633 14.6721H8.76476C8.43691 14.6721 8.16504 14.4002 8.16504 14.0724C8.16504 13.7445 8.43691 13.4727 8.76476 13.4727H11.9633C12.2911 13.4727 12.563 13.7445 12.563 14.0724C12.563 14.4002 12.2911 14.6721 11.9633 14.6721Z" fill="#24252B"/>
<path d="M14.4111 17.8713H5.51921C2.33669 17.8713 1.36914 16.9117 1.36914 13.7612V7.18822C1.36914 4.03768 2.33669 3.07812 5.51921 3.07812H11.1646C11.4924 3.07812 11.7643 3.35 11.7643 3.67785C11.7643 4.00569 11.4924 4.27757 11.1646 4.27757H5.51921C3.00838 4.27757 2.56858 4.70937 2.56858 7.18822V13.7532C2.56858 16.232 3.00838 16.6638 5.51921 16.6638H14.4031C16.9139 16.6638 17.3537 16.232 17.3537 13.7532V10.4907C17.3537 10.1628 17.6256 9.89096 17.9534 9.89096C18.2813 9.89096 18.5532 10.1628 18.5532 10.4907V13.7532C18.5611 16.9117 17.5936 17.8713 14.4111 17.8713Z" fill="#24252B"/>
<path d="M17.9606 6.47679H13.5626C13.2348 6.47679 12.9629 6.20491 12.9629 5.87707C12.9629 5.54922 13.2348 5.27734 13.5626 5.27734H17.9606C18.2884 5.27734 18.5603 5.54922 18.5603 5.87707C18.5603 6.20491 18.2884 6.47679 17.9606 6.47679Z" fill="#24252B"/>
<path d="M15.7618 8.67552C15.434 8.67552 15.1621 8.40365 15.1621 8.0758V3.67785C15.1621 3.35 15.434 3.07812 15.7618 3.07812C16.0897 3.07812 16.3616 3.35 16.3616 3.67785V8.0758C16.3616 8.40365 16.0897 8.67552 15.7618 8.67552Z" fill="#24252B"/>
</svg>
