<svg width="24" height="22" viewBox="0 0 24 22" fill="none" xmlns="http://www.w3.org/2000/svg">
<path d="M21.8733 8.13702H18.5984V2.89419C18.5984 1.60958 17.5532 0.564453 16.2686 0.564453H2.70338C1.41947 0.564453 0.375 1.60953 0.375 2.89419V13.7913C0.375 15.0752 1.41947 16.1196 2.70338 16.1196H4.89938V19.2298C4.89938 19.4579 5.03709 19.6634 5.24803 19.7501C5.31722 19.7785 5.38978 19.7923 5.46178 19.7923C5.6092 19.7923 5.75395 19.7344 5.86177 19.6255L9.3308 16.1196H10.9997V17.2154C10.9997 18.1806 11.7856 18.9658 12.7515 18.9658H17.34L19.6185 21.2691C19.7263 21.378 19.8711 21.436 20.0185 21.436C20.0905 21.436 20.163 21.4222 20.2323 21.3937C20.4432 21.307 20.5809 21.1016 20.5809 20.8735V18.9658H21.8734C22.8393 18.9658 23.6251 18.1806 23.6251 17.2154V9.88737C23.6251 8.92222 22.8393 8.13697 21.8734 8.13697L21.8733 8.13702ZM9.096 14.9947C8.94581 14.9947 8.80181 15.0548 8.69616 15.1616L6.02438 17.8617V15.5572C6.02438 15.2466 5.77252 14.9947 5.46188 14.9947H2.70338C2.03986 14.9947 1.5 14.4549 1.5 13.7914V2.89423C1.5 2.22997 2.03986 1.6895 2.70338 1.6895H16.2686C16.9329 1.6895 17.4734 2.22992 17.4734 2.89423V13.7913C17.4734 14.4549 16.9329 14.9947 16.2686 14.9947H9.096ZM22.5 17.2155C22.5 17.5603 22.2188 17.8409 21.8733 17.8409H20.0183C19.7077 17.8409 19.4558 18.0928 19.4558 18.4034V19.5051L17.9746 18.0078C17.869 17.901 17.725 17.8409 17.5748 17.8409H12.7515C12.4058 17.8409 12.1247 17.5603 12.1247 17.2155V16.1197H16.2686C17.5532 16.1197 18.5984 15.0752 18.5984 13.7913V9.26202H21.8733C22.2188 9.26202 22.5 9.54256 22.5 9.88742V17.2155ZM9.48666 6.06819C8.2328 6.06819 7.2127 7.08828 7.2127 8.34214C7.2127 9.596 8.2328 10.616 9.48666 10.616C10.7405 10.616 11.7606 9.59595 11.7606 8.34214C11.7606 7.08833 10.7405 6.06819 9.48666 6.06819ZM9.48666 9.49105C8.8531 9.49105 8.3377 8.97566 8.3377 8.34214C8.3377 7.70862 8.8531 7.19319 9.48666 7.19319C10.1202 7.19319 10.6356 7.70862 10.6356 8.34214C10.6356 8.97566 10.1202 9.49105 9.48666 9.49105ZM14.2506 7.24934L13.543 6.923L13.3592 6.47905L13.6288 5.74592C13.7046 5.53995 13.6536 5.30872 13.4983 5.1537L12.6745 4.33123C12.5193 4.17636 12.2885 4.12573 12.0826 4.20144L11.351 4.47092L10.907 4.28708L10.5793 3.57786C10.4873 3.37878 10.288 3.25128 10.0687 3.25128H8.90466C8.68533 3.25128 8.48597 3.37878 8.394 3.57786L8.06639 4.28703L7.62234 4.47088L6.89072 4.20139C6.68498 4.12564 6.45403 4.17627 6.29888 4.33114L5.475 5.15366C5.31975 5.30872 5.26875 5.53991 5.3445 5.74592L5.61417 6.47905L5.43033 6.923L4.7227 7.24934C4.52339 7.34127 4.39575 7.54067 4.39575 7.76014V8.92545C4.39575 9.14492 4.52339 9.34433 4.7227 9.43625L5.43033 9.76259L5.61417 10.2065L5.3445 10.9397C5.26875 11.1456 5.31975 11.3769 5.475 11.5319L6.29888 12.3544C6.45403 12.5093 6.68494 12.5599 6.89072 12.4842L7.62234 12.2147L8.06639 12.3985L8.394 13.1077C8.48597 13.3068 8.68533 13.4343 8.90466 13.4343H10.0687C10.288 13.4343 10.4873 13.3068 10.5793 13.1077L10.907 12.3985L11.351 12.2147L12.0826 12.4842C12.2885 12.56 12.5194 12.5092 12.6745 12.3544L13.4983 11.5319C13.6536 11.3768 13.7046 11.1456 13.6288 10.9397L13.3592 10.2065L13.543 9.76259L14.2506 9.43625C14.4499 9.34433 14.5776 9.14492 14.5776 8.92545V7.76014C14.5776 7.54067 14.4499 7.34127 14.2506 7.24934ZM13.4526 8.56545L12.872 8.83325C12.7434 8.89255 12.642 8.99806 12.5878 9.12884L12.2357 9.97925C12.1816 10.1098 12.1787 10.256 12.2274 10.3886L12.4487 10.9901L12.134 11.3042L11.5334 11.083C11.4007 11.0341 11.2545 11.037 11.1238 11.0911L10.2734 11.4433C10.1427 11.4973 10.0373 11.5986 9.97791 11.727L9.70889 12.3093H9.26442L8.99545 11.727C8.93616 11.5986 8.83064 11.4973 8.7 11.4432L7.84955 11.0911C7.71877 11.037 7.57261 11.0341 7.43995 11.0829L6.8393 11.3042L6.52467 10.9901L6.74592 10.3885C6.79467 10.2559 6.79177 10.1097 6.73767 9.97916L6.3855 9.12875C6.33136 8.99797 6.22992 8.89245 6.10134 8.83316L5.52075 8.56536V8.12005L6.10134 7.8523C6.22988 7.793 6.33131 7.68744 6.3855 7.5567L6.73767 6.7063C6.79172 6.5757 6.79467 6.42955 6.74592 6.29694L6.52467 5.69539L6.8393 5.38123L7.43995 5.60248C7.57266 5.65133 7.71886 5.64842 7.84955 5.59437L8.7 5.24225C8.83064 5.18816 8.93616 5.08681 8.99545 4.95842L9.26442 4.37614H9.70889L9.97791 4.95842C10.0373 5.08681 10.1427 5.18811 10.2734 5.24225L11.1238 5.59437C11.2545 5.64847 11.4006 5.65137 11.5334 5.60248L12.134 5.38123L12.4487 5.69539L12.2274 6.29694C12.1787 6.42959 12.1816 6.5757 12.2357 6.70625L12.5878 7.55666C12.642 7.68744 12.7434 7.793 12.872 7.8523L13.4526 8.12005V8.56536V8.56545Z" fill="#FF7A2C"/>
</svg>
