<svg width="24" height="24" viewBox="0 0 24 24" fill="none" xmlns="http://www.w3.org/2000/svg">
<g clip-path="url(#clip0_226_1705)">
<rect width="24" height="24" fill="white"/>
<path d="M2.42383 15.4434L16.0782 1.78902L18.4644 4.17522L4.81002 17.8296L2.42383 15.4434Z" fill="#FF7A2C"/>
<path d="M18.8454 10.0308H1.40738C0.88958 10.0308 0.469849 10.4505 0.469849 10.9683V22.5936C0.469849 23.1114 0.88958 23.5312 1.40738 23.5312H18.8454C19.3632 23.5312 19.7829 23.1114 19.7829 22.5936V10.9683C19.7829 10.4505 19.3632 10.0308 18.8454 10.0308Z" fill="white"/>
<path d="M23.5877 8.63153L15.3674 0.4112C14.8191 -0.13702 13.9269 -0.137113 13.3785 0.4112L4.22761 9.56208H1.40739C0.631961 9.56208 0.00109863 10.1929 0.00109863 10.9684V22.5937C0.00109863 23.3691 0.631961 24 1.40739 24H18.8454C19.6208 24 20.2517 23.3691 20.2517 22.5937V13.9564L23.5877 10.6204C24.136 10.072 24.1361 9.17989 23.5877 8.63153ZM19.3142 22.5937C19.3142 22.8522 19.1039 23.0625 18.8454 23.0625H1.40739C1.14891 23.0625 0.938626 22.8522 0.938626 22.5937V10.9684C0.938626 10.7099 1.14891 10.4996 1.40739 10.4996H18.8454C19.1039 10.4996 19.3142 10.7099 19.3142 10.9684V22.5937ZM22.9248 9.95743L20.2517 12.6305V10.9684C20.2517 10.193 19.6209 9.56212 18.8454 9.56212H5.55351L14.0415 1.07417C14.2243 0.891354 14.5217 0.891448 14.7044 1.07417L22.9248 9.29451C23.1075 9.47728 23.1075 9.77466 22.9248 9.95743Z" fill="#FF7A2C"/>
<path d="M4.13591 15.6559C5.06792 15.6559 5.82346 14.9003 5.82346 13.9683C5.82346 13.0363 5.06792 12.2808 4.13591 12.2808C3.20391 12.2808 2.44836 13.0363 2.44836 13.9683C2.44836 14.9003 3.20391 15.6559 4.13591 15.6559Z" fill="#FF7A2C"/>
<path d="M4.7015 18.8438H2.71998C2.46113 18.8438 2.25122 18.6339 2.25122 18.375C2.25122 18.1161 2.46113 17.9062 2.71998 17.9062H4.7015C4.96035 17.9062 5.17026 18.1161 5.17026 18.375C5.17026 18.6339 4.96035 18.8438 4.7015 18.8438Z" fill="#FF7A2C"/>
<path d="M8.97864 21.4688H2.71998C2.46113 21.4688 2.25122 21.2589 2.25122 21C2.25122 20.7411 2.46113 20.5312 2.71998 20.5312H8.97864C9.23749 20.5312 9.4474 20.7411 9.4474 21C9.4474 21.2589 9.23749 21.4688 8.97864 21.4688Z" fill="#FF7A2C"/>
<path d="M17.5329 21.4688H15.5514C15.2926 21.4688 15.0826 21.2589 15.0826 21C15.0826 20.7411 15.2926 20.5312 15.5514 20.5312H17.5329C17.7918 20.5312 18.0017 20.7411 18.0017 21C18.0017 21.2589 17.7918 21.4688 17.5329 21.4688Z" fill="#FF7A2C"/>
<path d="M8.9786 18.8438H6.99708C6.73823 18.8438 6.52832 18.6339 6.52832 18.375C6.52832 18.1161 6.73823 17.9062 6.99708 17.9062H8.9786C9.23745 17.9062 9.44736 18.1161 9.44736 18.375C9.44736 18.6339 9.23745 18.8438 8.9786 18.8438Z" fill="#FF7A2C"/>
<path d="M13.2558 18.8438H11.2743C11.0155 18.8438 10.8055 18.6339 10.8055 18.375C10.8055 18.1161 11.0155 17.9062 11.2743 17.9062H13.2558C13.5147 17.9062 13.7246 18.1161 13.7246 18.375C13.7246 18.6339 13.5147 18.8438 13.2558 18.8438Z" fill="#FF7A2C"/>
<path d="M17.5329 18.8438H15.5514C15.2926 18.8438 15.0826 18.6339 15.0826 18.375C15.0826 18.1161 15.2926 17.9062 15.5514 17.9062H17.5329C17.7918 17.9062 18.0017 18.1161 18.0017 18.375C18.0017 18.6339 17.7918 18.8438 17.5329 18.8438Z" fill="#FF7A2C"/>
<path d="M15.0015 12.2808H14.3452C13.8274 12.2808 13.4077 12.7005 13.4077 13.2183V14.7183C13.4077 15.2361 13.8274 15.6559 14.3452 15.6559H15.0015V12.2808Z" fill="#FF7A2C"/>
<path d="M16.5953 12.2808H15.939V15.6559H16.5953C17.1131 15.6559 17.5328 15.2361 17.5328 14.7183V13.2183C17.5328 12.7005 17.1131 12.2808 16.5953 12.2808Z" fill="#FF7A2C"/>
</g>
<defs>
<clipPath id="clip0_226_1705">
<rect width="24" height="24" fill="white"/>
</clipPath>
</defs>
</svg>
