<svg width="32" height="32" viewBox="0 0 32 32" fill="none" xmlns="http://www.w3.org/2000/svg">
<path d="M16.6667 24C17.0444 24 17.3613 23.872 17.6173 23.616C17.8733 23.36 18.0009 23.0436 18 22.6667C18 22.2889 17.872 21.972 17.616 21.716C17.36 21.46 17.0436 21.3324 16.6667 21.3333H6C5.62222 21.3333 5.30533 21.4613 5.04933 21.7173C4.79333 21.9733 4.66578 22.2898 4.66667 22.6667C4.66667 23.0444 4.79467 23.3613 5.05067 23.6173C5.30667 23.8733 5.62311 24.0009 6 24H16.6667ZM22.8 21.7333L27.6 16.9333C27.8667 16.6667 28 16.3556 28 16C28 15.6444 27.8667 15.3333 27.6 15.0667L22.8 10.2667C22.5556 10.0222 22.2444 9.9 21.8667 9.9C21.4889 9.9 21.1778 10.0222 20.9333 10.2667C20.6889 10.5111 20.5667 10.8222 20.5667 11.2C20.5667 11.5778 20.6889 11.8889 20.9333 12.1333L24.8 16L20.9333 19.8667C20.6889 20.1111 20.5667 20.4222 20.5667 20.8C20.5667 21.1778 20.6889 21.4889 20.9333 21.7333C21.1778 21.9778 21.4889 22.1 21.8667 22.1C22.2444 22.1 22.5556 21.9778 22.8 21.7333ZM19.3333 17.3333C19.7111 17.3333 20.028 17.2053 20.284 16.9493C20.54 16.6933 20.6676 16.3769 20.6667 16C20.6667 15.6222 20.5387 15.3053 20.2827 15.0493C20.0267 14.7933 19.7102 14.6658 19.3333 14.6667H6C5.62222 14.6667 5.30533 14.7947 5.04933 15.0507C4.79333 15.3067 4.66578 15.6231 4.66667 16C4.66667 16.3778 4.79467 16.6947 5.05067 16.9507C5.30667 17.2067 5.62311 17.3342 6 17.3333H19.3333ZM16.6667 10.6667C17.0444 10.6667 17.3613 10.5387 17.6173 10.2827C17.8733 10.0267 18.0009 9.71023 18 9.33334C18 8.95556 17.872 8.63867 17.616 8.38267C17.36 8.12667 17.0436 7.99912 16.6667 8H6C5.62222 8 5.30533 8.128 5.04933 8.384C4.79333 8.64 4.66578 8.95645 4.66667 9.33334C4.66667 9.71112 4.79467 10.028 5.05067 10.284C5.30667 10.54 5.62311 10.6676 6 10.6667H16.6667Z" fill="#FF7A2C"/>
</svg>
