<svg width="32" height="32" viewBox="0 0 32 32" fill="none" xmlns="http://www.w3.org/2000/svg">
<path d="M19.3532 24.0002C19.731 24.0002 20.0479 23.8722 20.3039 23.6162C20.5599 23.3602 20.6874 23.0438 20.6865 22.6669C20.6865 22.2891 20.5585 21.9722 20.3025 21.7162C20.0465 21.4602 19.7301 21.3327 19.3532 21.3336H6.00005C5.62227 21.3336 5.30538 21.4616 5.04938 21.7176C4.79338 21.9736 4.66583 22.29 4.66672 22.6669C4.66672 23.0447 4.79472 23.3616 5.05072 23.6176C5.30672 23.8736 5.62316 24.0011 6.00005 24.0002H19.3532ZM16.6667 17.3336C17.0445 17.3336 17.3614 17.2056 17.6174 16.9496C17.8734 16.6936 18.0009 16.3771 18.0001 16.0002C18.0001 15.6224 17.8721 15.3056 17.6161 15.0496C17.3601 14.7936 17.0436 14.666 16.6667 14.6669H6.00005C5.62227 14.6669 5.30538 14.7949 5.04938 15.0509C4.79338 15.3069 4.66583 15.6233 4.66672 16.0002C4.66672 16.378 4.79472 16.6949 5.05072 16.9509C5.30672 17.2069 5.62316 17.3344 6.00005 17.3336H16.6667ZM19.3532 10.651C19.731 10.651 20.0479 10.523 20.3039 10.267C20.5599 10.011 20.6874 9.6946 20.6865 9.31771C20.6865 8.93994 20.5585 8.62305 20.3025 8.36705C20.0465 8.11105 19.7301 7.98349 19.3532 7.98438L6.00005 8.00022C5.62227 8.00022 5.30538 8.12822 5.04938 8.38422C4.79338 8.64022 4.66583 8.95667 4.66672 9.33355C4.66672 9.71133 4.79472 10.0282 5.05072 10.2842C5.30672 10.5402 5.62316 10.6678 6.00005 10.6669L19.3532 10.651Z" fill="#FF7A2C"/>
<path d="M25.8001 10.2507L21.0001 15.0507C20.7334 15.3173 20.6001 15.6284 20.6001 15.984C20.6001 16.3395 20.7334 16.6507 21.0001 16.9173L25.8001 21.7173C26.0445 21.9618 26.3557 22.084 26.7334 22.084C27.1112 22.084 27.4223 21.9618 27.6668 21.7173C27.9112 21.4729 28.0334 21.1618 28.0334 20.784C28.0334 20.4062 27.9112 20.0951 27.6668 19.8507L23.8001 15.984L27.6668 12.1173C27.9112 11.8729 28.0334 11.5618 28.0334 11.184C28.0334 10.8062 27.9112 10.4951 27.6668 10.2507C27.4223 10.0062 27.1112 9.88399 26.7334 9.88399C26.3557 9.88399 26.0445 10.0062 25.8001 10.2507Z" fill="#FF7A2C"/>
</svg>
