<svg width="24" height="24" viewBox="0 0 24 24" fill="none" xmlns="http://www.w3.org/2000/svg">
<path d="M7.875 4.49999C7.875 3.29589 7.22809 2.17675 6.18658 1.57982C6.0716 1.51407 5.92785 1.52085 5.81484 1.58589C5.70495 1.64913 5.625 1.77611 5.625 1.90502V4.68749L4.5 5.53124L3.375 4.68749C3.375 4.68749 3.375 1.9121 3.375 1.90503C3.37499 1.77634 3.2952 1.64945 3.18556 1.58615C3.07715 1.52355 2.92377 1.51663 2.81342 1.57983C1.77191 2.17675 1.125 3.29589 1.125 4.49999C1.125 5.62776 1.69729 6.67524 2.625 7.29466V16.7053C1.69729 17.3247 1.125 18.3722 1.125 19.5C1.125 21.3611 2.6391 22.875 4.5 22.875C6.3609 22.875 7.875 21.3611 7.875 19.5C7.875 18.3722 7.3027 17.3247 6.375 16.7053V7.29466C7.3027 6.67524 7.875 5.62776 7.875 4.49999ZM7.125 19.5C7.125 20.9473 5.94745 22.125 4.5 22.125C3.05255 22.125 1.875 20.9473 1.875 19.5C1.875 18.5636 2.37762 17.6942 3.18658 17.2302C3.29377 17.1687 3.375 17.0283 3.375 16.905C3.375 16.905 3.375 7.0965 3.375 7.09496C3.375 6.97204 3.29522 6.83208 3.18658 6.76977C2.37762 6.30578 1.875 5.43639 1.875 4.49999C1.875 3.80573 2.15241 3.14918 2.625 2.66651V4.87499C2.625 4.99291 2.68048 5.10424 2.77496 5.17492L4.27496 6.29992C4.34162 6.35009 4.4209 6.37499 4.5 6.37499C4.5791 6.37499 4.65838 6.35009 4.72504 6.29992L6.22504 5.17492C6.31952 5.10424 6.375 4.99291 6.375 4.87499V2.66649C6.84759 3.14918 7.125 3.8057 7.125 4.49999C7.125 5.43639 6.62238 6.30578 5.81341 6.76977C5.70608 6.83132 5.625 6.97017 5.625 7.09496V16.905C5.62501 17.0283 5.70618 17.1687 5.81342 17.2302C6.62238 17.6942 7.125 18.5636 7.125 19.5Z" fill="#6F6F6F"/>
<path d="M6.26482 18.6156C6.26482 18.6156 5.38644 17.7375 5.38411 17.7351C5.31624 17.6673 5.21459 17.625 5.11871 17.625C5.11871 17.625 3.88441 17.625 3.88129 17.625C3.78569 17.625 3.68341 17.6675 3.6159 17.7351C3.6159 17.7351 2.7364 18.6144 2.73518 18.6156C2.66584 18.685 2.625 18.7832 2.625 18.8811V20.1189C2.625 20.2166 2.66609 20.3154 2.73518 20.3844C2.73518 20.3844 3.61456 21.2636 3.6159 21.2649C3.68496 21.3339 3.78377 21.375 3.88129 21.375H5.11871C5.21549 21.375 5.31593 21.3332 5.3841 21.2649C5.3841 21.2649 6.26419 20.385 6.26481 20.3844C6.33442 20.3148 6.375 20.2174 6.375 20.1189C6.375 20.1189 6.375 18.8837 6.375 18.8811C6.375 18.7871 6.33132 18.682 6.26482 18.6156ZM4.96346 20.625H4.03654L3.375 19.9636V19.0364L4.03654 18.375H4.96346L5.625 19.0364V19.9636L4.96346 20.625Z" fill="#6F6F6F"/>
<path d="M4.5 16.125C4.70709 16.125 4.875 15.9573 4.875 15.75V8.25C4.875 8.04273 4.70709 7.875 4.5 7.875C4.29291 7.875 4.125 8.04273 4.125 8.25V15.75C4.125 15.9573 4.29291 16.125 4.5 16.125Z" fill="#6F6F6F"/>
<path d="M13.125 14.625V13.875C13.125 13.4615 12.7886 13.125 12.375 13.125V5.40527L13.0151 4.76514C13.1083 4.67212 13.1457 4.53699 13.1138 4.40918L12.3638 1.40918C12.3221 1.24219 12.1721 1.125 12 1.125H10.5C10.3279 1.125 10.1779 1.24219 10.1362 1.40918L9.38617 4.40918C9.35431 4.53699 9.39167 4.67212 9.48486 4.76514L10.125 5.40527V13.125C9.71136 13.125 9.375 13.4615 9.375 13.875V14.625C8.96136 14.625 8.625 14.9615 8.625 15.375V21C8.625 22.0338 9.46618 22.875 10.5 22.875H12C13.0338 22.875 13.875 22.0338 13.875 21V15.375C13.875 14.9615 13.5386 14.625 13.125 14.625ZM10.7651 4.98486L10.1653 4.38501L10.7928 1.875H11.7072L12.3347 4.38501L11.7349 4.98486C11.6646 5.05518 11.625 5.15039 11.625 5.25V13.125H10.875V5.25C10.875 5.15039 10.8354 5.05518 10.7651 4.98486ZM10.125 13.875H12.375V14.625H10.125V13.875ZM13.125 21C13.125 21.6204 12.6204 22.125 12 22.125H10.5C9.87964 22.125 9.375 21.6204 9.375 21V15.375H9.75H12.75H13.125V21Z" fill="#6F6F6F"/>
<path d="M12 16.125C11.7929 16.125 11.625 16.2927 11.625 16.5V21C11.625 21.2073 11.7929 21.375 12 21.375C12.2071 21.375 12.375 21.2073 12.375 21V16.5C12.375 16.2927 12.2071 16.125 12 16.125Z" fill="#6F6F6F"/>
<path d="M10.5 16.125C10.2929 16.125 10.125 16.2927 10.125 16.5V21C10.125 21.2073 10.2929 21.375 10.5 21.375C10.7071 21.375 10.875 21.2073 10.875 21V16.5C10.875 16.2927 10.7071 16.125 10.5 16.125Z" fill="#6F6F6F"/>
<path d="M22.125 1.125H21.375C20.9614 1.125 20.625 1.46155 20.625 1.875V2.25C20.625 2.34997 20.5867 2.44226 20.5102 2.51733C20.4424 2.58655 20.3502 2.625 20.25 2.625C20.0433 2.625 19.875 2.45691 19.875 2.25C19.875 2.04273 19.7071 1.875 19.5 1.875H16.6388C15.2994 1.875 14.1779 2.87879 14.0299 4.21033L13.8774 5.58362C13.8598 5.74182 13.944 5.89416 14.0876 5.96301C14.2248 6.02883 14.4025 6.00307 14.5151 5.89014L15.3563 5.04931C15.7101 4.69519 16.181 4.5 16.682 4.5H16.875V5.25V7.22933C16.6519 7.35947 16.5 7.59872 16.5 7.875V21.75C16.5 22.3704 17.0046 22.875 17.625 22.875H19.125C19.7454 22.875 20.25 22.3704 20.25 21.75V7.875C20.25 7.59871 20.0981 7.35947 19.875 7.22933V5.25C19.875 5.15002 19.9133 5.05774 19.9898 4.98267C20.0658 4.90466 20.168 4.86768 20.2848 4.87647C20.4723 4.89258 20.625 5.07898 20.625 5.29211V5.625C20.625 6.03845 20.9614 6.375 21.375 6.375H22.125C22.5386 6.375 22.875 6.03845 22.875 5.625V1.875C22.875 1.46155 22.5386 1.125 22.125 1.125ZM19.5 9.375H17.25V7.875H19.5V9.375ZM19.125 7.125H17.625V5.625H19.125V7.125ZM19.125 22.125H17.625C17.4183 22.125 17.25 21.9569 17.25 21.75V10.125H19.5V21.75C19.5 21.9569 19.3317 22.125 19.125 22.125ZM20.3481 4.1294C20.0107 4.0979 19.6849 4.22095 19.4594 4.45276C19.3361 4.57287 19.2446 4.71679 19.1887 4.875H17.625V4.5C17.625 4.08655 17.2886 3.75 16.875 3.75H16.682C15.9805 3.75 15.3213 4.0232 14.8259 4.51904L14.7407 4.604L14.7751 4.29309C14.881 3.34204 15.6821 2.625 16.6388 2.625H19.1893C19.344 3.06152 19.7611 3.375 20.25 3.375C20.3804 3.375 20.5069 3.35303 20.625 3.31164V4.19055C20.5373 4.15833 20.4445 4.13745 20.3481 4.1294ZM21.375 5.625V1.875H22.125L22.1255 5.625H21.375Z" fill="#6F6F6F"/>
<path d="M18.375 12.375C18.1679 12.375 18 12.5427 18 12.75V19.5C18 19.7073 18.1679 19.875 18.375 19.875C18.5821 19.875 18.75 19.7073 18.75 19.5V12.75C18.75 12.5427 18.5821 12.375 18.375 12.375Z" fill="#6F6F6F"/>
</svg>
