<svg width="38" height="39" viewBox="0 0 38 39" fill="none" xmlns="http://www.w3.org/2000/svg">
<path d="M27.75 10.75C27.75 12.1251 26.6245 13.25 25.25 13.25C23.8755 13.25 22.75 12.1251 22.75 10.75C22.75 9.37488 23.8755 8.25 25.25 8.25C26.6245 8.25 27.75 9.37488 27.75 10.75ZM37.75 4.5V27.7874L32.3875 21.5374C31.5 20.4998 30.3 19.9248 29 19.9248C27.7 19.9248 26.5 20.4998 25.6125 21.5374L21.5745 26.2377L16.1875 18.825C14.9753 17.1501 13.3005 16.2126 11.4622 16.1748C9.61279 16.1498 7.92456 17.0122 6.65015 18.6376L0.25 26.7626V4.5C0.25 2.43762 1.93701 0.75 4 0.75H34C36.063 0.75 37.75 2.43762 37.75 4.5ZM30.25 10.75C30.25 7.98755 28.0125 5.75 25.25 5.75C22.4875 5.75 20.25 7.98755 20.25 10.75C20.25 13.5125 22.4875 15.75 25.25 15.75C28.0125 15.75 30.25 13.5125 30.25 10.75ZM27.512 23.1627L22.4497 29.0624C22.1995 29.3499 21.8369 29.5122 21.45 29.5C21.063 29.4878 20.7126 29.2998 20.488 28.9873L14.1624 20.2874C13.425 19.2748 12.4497 18.6998 11.4255 18.6748C10.3879 18.6748 9.40039 19.1875 8.61304 20.1873L0.25 30.8251V34.5C0.25 36.5624 1.93701 38.25 4 38.25H34C36.063 38.25 37.75 36.5624 37.75 34.5V31.6375L30.488 23.1627C29.675 22.2124 28.325 22.2124 27.512 23.1627Z" fill="#C3C3C3"/>
</svg>
