<svg width="40" height="40" viewBox="0 0 40 40" fill="none" xmlns="http://www.w3.org/2000/svg">
<g clip-path="url(#clip0_256_1435)">
<path d="M39.2188 19.003H37.8833C37.4895 14.8 33.9524 11.5 29.6614 11.5C26.1661 11.5 23.1711 13.6896 21.9677 16.7732C21.4438 16.3065 20.7544 16.0227 20 16.0227C19.2456 16.0227 18.5562 16.3065 18.0323 16.7732C16.8288 13.6896 13.8338 11.5 10.3385 11.5C6.0475 11.5 2.51039 14.8 2.11672 19.003H0.78125C0.349766 19.003 0 19.3527 0 19.7842C0 20.2157 0.349766 20.5655 0.78125 20.5655H2.11672C2.51039 24.7684 6.0475 28.0684 10.3385 28.0684C14.8921 28.0684 18.5968 24.3521 18.5968 19.7842V18.996C18.5968 18.2181 19.2262 17.5852 20 17.5852C20.7737 17.5852 21.4032 18.2181 21.4032 18.996V19.7842C21.4032 24.3521 25.1078 28.0684 29.6614 28.0684C33.9524 28.0684 37.4895 24.7684 37.8833 20.5655H39.2188C39.6502 20.5655 40 20.2157 40 19.7842C40 19.3527 39.6502 19.003 39.2188 19.003ZM10.3385 26.5059C6.64648 26.5059 3.64273 23.4905 3.64273 19.7842C3.64273 16.0779 6.64641 13.0625 10.3385 13.0625C14.0306 13.0625 17.0343 16.0778 17.0343 19.7842C17.0343 23.4905 14.0306 26.5059 10.3385 26.5059ZM29.6614 26.5059C25.9694 26.5059 22.9657 23.4905 22.9657 19.7842C22.9657 16.0779 25.9694 13.0625 29.6614 13.0625C33.3535 13.0625 36.3572 16.0778 36.3572 19.7842C36.3572 23.4905 33.3535 26.5059 29.6614 26.5059Z" fill="#FF7A2C"/>
<path d="M10.0442 16.2508C9.73861 15.9463 9.24393 15.9471 8.9394 16.2527L5.57549 19.6284C5.27096 19.934 5.27182 20.4287 5.57744 20.7332C5.72994 20.8852 5.9294 20.9611 6.12893 20.9611C6.32932 20.9611 6.52971 20.8845 6.68229 20.7313L10.0462 17.3557C10.3507 17.0501 10.3499 16.5554 10.0442 16.2508Z" fill="#FF7A2C"/>
<path d="M9.98017 19.7308L8.29821 21.4186C7.9936 21.7242 7.99446 22.2189 8.30009 22.5234C8.45259 22.6754 8.65204 22.7513 8.85157 22.7513C9.05196 22.7513 9.25235 22.6747 9.40493 22.5215L11.0869 20.8337C11.3915 20.5281 11.3906 20.0334 11.085 19.7289C10.7794 19.4242 10.2847 19.4252 9.98017 19.7308Z" fill="#FF7A2C"/>
<path d="M29.4462 15.3553C29.1407 15.0508 28.6459 15.0516 28.3414 15.3572L24.9774 18.7328C24.6729 19.0384 24.6736 19.5331 24.9793 19.8377C25.1317 19.9897 25.3312 20.0656 25.5307 20.0656C25.7311 20.0656 25.9315 19.989 26.0841 19.8359L29.4481 16.4603C29.7527 16.1546 29.7518 15.6599 29.4462 15.3553Z" fill="#FF7A2C"/>
<path d="M29.3815 18.8353L27.6996 20.5231C27.395 20.8287 27.3958 21.3234 27.7014 21.6279C27.8538 21.7799 28.0534 21.8558 28.2529 21.8558C28.4532 21.8558 28.6537 21.7792 28.8063 21.6261L30.4882 19.9382C30.7928 19.6326 30.792 19.1379 30.4863 18.8334C30.1807 18.5288 29.686 18.5296 29.3815 18.8353Z" fill="#FF7A2C"/>
</g>
<defs>
<clipPath id="clip0_256_1435">
<rect width="40" height="40" fill="white"/>
</clipPath>
</defs>
</svg>
