<svg width="24" height="24" viewBox="0 0 24 24" fill="none" xmlns="http://www.w3.org/2000/svg">
<path d="M6.99984 20H3.99984C3.8685 20 3.73844 19.9741 3.61711 19.9238C3.49577 19.8736 3.38553 19.7999 3.29268 19.707C3.19983 19.6141 3.12619 19.5038 3.07597 19.3824C3.02575 19.2611 2.99994 19.131 3 18.9997V8M11.0002 11.9998H17.0002M11.0002 8H17.0002" stroke="#6F6F6F" stroke-linecap="round" stroke-linejoin="round"/>
<path d="M20.0002 3.99976H8.00016C7.86878 3.99969 7.73867 4.02552 7.61728 4.07577C7.49589 4.12602 7.38559 4.1997 7.29269 4.2926C7.19979 4.3855 7.1261 4.4958 7.07586 4.6172C7.02561 4.73859 6.99978 4.86869 6.99984 5.00008V14.9999C6.99984 15.1313 7.02572 15.2613 7.07599 15.3826C7.12627 15.504 7.19996 15.6142 7.29286 15.7071C7.38575 15.7999 7.49603 15.8736 7.61739 15.9238C7.73875 15.974 7.86882 15.9998 8.00016 15.9998H11.0002V18.9998L15.9998 15.9998H20.0002C20.2653 15.9998 20.5196 15.8944 20.7072 15.7069C20.8947 15.5194 21 15.2651 21 14.9999V5.00008C21.0001 4.86873 20.9742 4.73867 20.924 4.61731C20.8738 4.49594 20.8002 4.38567 20.7073 4.29277C20.6145 4.19988 20.5042 4.12619 20.3829 4.07591C20.2616 4.02563 20.1315 3.99976 20.0002 3.99976Z" stroke="#6F6F6F" stroke-linecap="round" stroke-linejoin="round"/>
</svg>
