<svg width="40" height="40" viewBox="0 0 40 40" fill="none" xmlns="http://www.w3.org/2000/svg">
<g clip-path="url(#clip0_256_1416)">
<path d="M9.45312 20C9.45312 25.8155 14.1845 30.5469 20 30.5469C25.8155 30.5469 30.5469 25.8155 30.5469 20C30.5469 14.1845 25.8155 9.45312 20 9.45312C14.1845 9.45312 9.45312 14.1845 9.45312 20ZM20 11.7969C24.5232 11.7969 28.2031 15.4768 28.2031 20C28.2031 24.5232 24.5232 28.2031 20 28.2031C15.4768 28.2031 11.7969 24.5232 11.7969 20C11.7969 15.4768 15.4768 11.7969 20 11.7969Z" fill="#FF7A2C"/>
<path d="M29.1152 29.1153C28.6576 29.5729 28.6576 30.3149 29.1152 30.7725L34.7735 36.4308C35.2311 36.8885 35.9731 36.8886 36.4308 36.4308C36.8884 35.9732 36.8884 35.2312 36.4308 34.7736L30.7725 29.1153C30.3148 28.6575 29.5728 28.6575 29.1152 29.1153Z" fill="#FF7A2C"/>
<path d="M5.22658 3.56932C4.769 3.11166 4.02697 3.11166 3.56932 3.56932C3.11166 4.02697 3.11166 4.76893 3.56932 5.22658L9.2276 10.8849C9.68518 11.3425 10.4272 11.3426 10.8849 10.8849C11.3425 10.4272 11.3425 9.68525 10.8849 9.2276L5.22658 3.56932Z" fill="#FF7A2C"/>
<path d="M3.56932 36.4308C4.02689 36.8884 4.76893 36.8885 5.22658 36.4308L10.8849 30.7725C11.3425 30.3148 11.3425 29.5729 10.8849 29.1152C10.4273 28.6576 9.68525 28.6576 9.2276 29.1152L3.56932 34.7735C3.11166 35.2312 3.11166 35.9731 3.56932 36.4308Z" fill="#FF7A2C"/>
<path d="M36.4308 3.56932C35.9732 3.11166 35.2312 3.11166 34.7735 3.56932L29.1152 9.2276C28.6576 9.68525 28.6576 10.4272 29.1152 10.8849C29.5728 11.3425 30.3148 11.3426 30.7725 10.8849L36.4308 5.22658C36.8884 4.76893 36.8884 4.02697 36.4308 3.56932Z" fill="#FF7A2C"/>
<path d="M24.9332 31.9093C24.3352 32.157 24.0513 32.8425 24.299 33.4405L25.1959 35.6058C25.4432 36.2028 26.1282 36.488 26.727 36.24C27.325 35.9923 27.6089 35.3068 27.3612 34.7088L26.4644 32.5435C26.2166 31.9455 25.5312 31.6617 24.9332 31.9093Z" fill="#FF7A2C"/>
<path d="M15.0669 8.09059C15.6648 7.84293 15.9487 7.15738 15.7011 6.55941L14.8042 4.3941C14.5565 3.79613 13.871 3.5123 13.273 3.75988C12.6751 4.00754 12.3912 4.69309 12.6388 5.29105L13.5357 7.45637C13.7831 8.0534 14.468 8.33863 15.0669 8.09059Z" fill="#FF7A2C"/>
<path d="M6.55945 24.2989L4.39413 25.1958C3.79617 25.4434 3.51226 26.129 3.75992 26.7269C4.00726 27.324 4.69226 27.6092 5.29109 27.3612L7.4564 26.4643C8.05437 26.2166 8.33827 25.5311 8.09062 24.9331C7.84296 24.3352 7.15749 24.0514 6.55945 24.2989Z" fill="#FF7A2C"/>
<path d="M33.4405 15.7011L35.6058 14.8042C36.2038 14.5565 36.4877 13.871 36.24 13.273C35.9924 12.675 35.3069 12.3912 34.7089 12.6388L32.5435 13.5357C31.9456 13.7833 31.6617 14.4689 31.9093 15.0668C32.1567 15.6639 32.8417 15.949 33.4405 15.7011Z" fill="#FF7A2C"/>
<path d="M13.5357 32.5435L12.6388 34.7088C12.3912 35.3068 12.6751 35.9923 13.273 36.24C13.8734 36.4886 14.5575 36.2013 14.8042 35.6058L15.7011 33.4405C15.9487 32.8425 15.6648 32.157 15.0669 31.9093C14.4688 31.6617 13.7834 31.9455 13.5357 32.5435Z" fill="#FF7A2C"/>
<path d="M26.4644 7.45637L27.3612 5.29105C27.6089 4.69309 27.325 4.00762 26.727 3.75988C26.1291 3.5123 25.4436 3.79613 25.1959 4.3941L24.299 6.55941C24.0513 7.15738 24.3352 7.84285 24.9332 8.09058C25.5336 8.33918 26.2177 8.05191 26.4644 7.45637Z" fill="#FF7A2C"/>
<path d="M7.4564 13.5357L5.29109 12.6388C4.69312 12.3912 4.00765 12.6751 3.75992 13.273C3.51226 13.871 3.79617 14.5565 4.39413 14.8042L6.55945 15.7011C7.15984 15.9497 7.8439 15.6624 8.09062 15.0669C8.33827 14.4689 8.05437 13.7834 7.4564 13.5357Z" fill="#FF7A2C"/>
<path d="M35.6058 25.1958L33.4405 24.2989C32.8425 24.0514 32.1571 24.3352 31.9093 24.9332C31.6617 25.5311 31.9456 26.2166 32.5435 26.4643L34.7089 27.3612C35.3092 27.6098 35.9933 27.3225 36.24 26.727C36.4877 26.129 36.2038 25.4435 35.6058 25.1958Z" fill="#FF7A2C"/>
<path d="M18.8281 34.0625V38.8281C18.8281 39.4753 19.3528 40 20 40C20.6472 40 21.1719 39.4753 21.1719 38.8281V34.0625C21.1719 33.4153 20.6472 32.8906 20 32.8906C19.3528 32.8906 18.8281 33.4153 18.8281 34.0625Z" fill="#FF7A2C"/>
<path d="M21.1719 5.9375V1.17188C21.1719 0.524687 20.6472 0 20 0C19.3528 0 18.8281 0.524687 18.8281 1.17188V5.9375C18.8281 6.58469 19.3528 7.10938 20 7.10938C20.6472 7.10938 21.1719 6.58469 21.1719 5.9375Z" fill="#FF7A2C"/>
<path d="M0 20C0 20.6472 0.524687 21.1719 1.17188 21.1719H5.9375C6.58469 21.1719 7.10938 20.6472 7.10938 20C7.10938 19.3528 6.58469 18.8281 5.9375 18.8281H1.17188C0.524687 18.8281 0 19.3528 0 20Z" fill="#FF7A2C"/>
<path d="M38.8281 18.8281H34.0625C33.4153 18.8281 32.8906 19.3528 32.8906 20C32.8906 20.6472 33.4153 21.1719 34.0625 21.1719H38.8281C39.4753 21.1719 40 20.6472 40 20C40 19.3528 39.4753 18.8281 38.8281 18.8281Z" fill="#FF7A2C"/>
</g>
<defs>
<clipPath id="clip0_256_1416">
<rect width="40" height="40" fill="white"/>
</clipPath>
</defs>
</svg>
