<svg width="16" height="16" viewBox="0 0 16 16" fill="none" xmlns="http://www.w3.org/2000/svg">
<path d="M12.6667 5.99992C12.6667 5.38708 12.546 4.78025 12.3114 4.21406C12.0769 3.64788 11.7332 3.13343 11.2998 2.70009C10.8665 2.26675 10.352 1.923 9.78585 1.68848C9.21966 1.45396 8.61283 1.33325 7.99999 1.33325C7.38716 1.33325 6.78032 1.45396 6.21414 1.68848C5.64795 1.923 5.1335 2.26675 4.70016 2.70009C4.26682 3.13343 3.92308 3.64788 3.68856 4.21406C3.45404 4.78025 3.33333 5.38708 3.33333 5.99992C3.33333 6.92458 3.60599 7.78458 4.06999 8.50992H4.06466L7.57871 14.0075C7.77533 14.3151 8.22466 14.3151 8.42128 14.0075L11.9353 8.50992H11.9307C12.4112 7.76097 12.6667 6.88979 12.6667 5.99992ZM7.99999 7.99992C7.46956 7.99992 6.96085 7.7892 6.58578 7.41413C6.21071 7.03906 5.99999 6.53035 5.99999 5.99992C5.99999 5.46949 6.21071 4.96078 6.58578 4.58571C6.96085 4.21063 7.46956 3.99992 7.99999 3.99992C8.53043 3.99992 9.03914 4.21063 9.41421 4.58571C9.78928 4.96078 9.99999 5.46949 9.99999 5.99992C9.99999 6.53035 9.78928 7.03906 9.41421 7.41413C9.03914 7.7892 8.53043 7.99992 7.99999 7.99992Z" fill="#FF7A2C"/>
</svg>
