<svg width="168" height="168" viewBox="0 0 168 168" fill="none" xmlns="http://www.w3.org/2000/svg">
<rect x="2" y="2" width="164" height="164" rx="82" stroke="url(#paint0_linear_27_5320)" stroke-width="4"/>
<path d="M32.656 71C35.1093 71 37.2747 71.544 39.152 72.632C41.0293 73.72 42.48 75.224 43.504 77.144C44.528 79.064 45.04 81.24 45.04 83.672C45.04 86.168 44.2613 88.472 42.704 90.584C41.1467 92.696 39.216 94.3707 36.912 95.608C34.6293 96.824 32.4533 97.432 30.384 97.432C27.9307 97.432 25.7653 96.8987 23.888 95.832C22.032 94.744 20.5813 93.24 19.536 91.32C18.512 89.4 18 87.224 18 84.792C18 82.296 18.768 79.992 20.304 77.88C21.8613 75.7467 23.792 74.072 26.096 72.856C28.4 71.6187 30.5867 71 32.656 71ZM30.8 74.68C29.6053 74.68 28.5067 75.0533 27.504 75.8C26.5227 76.5467 25.744 77.5707 25.168 78.872C24.592 80.1733 24.304 81.6347 24.304 83.256C24.304 85.176 24.592 86.936 25.168 88.536C25.7653 90.1147 26.6507 91.384 27.824 92.344C29.0187 93.2827 30.4907 93.752 32.24 93.752C33.4133 93.752 34.4907 93.3787 35.472 92.632C36.4747 91.8853 37.264 90.8613 37.84 89.56C38.416 88.2587 38.704 86.7973 38.704 85.176C38.704 83.2347 38.416 81.4747 37.84 79.896C37.264 78.3173 36.3787 77.0587 35.184 76.12C34.0107 75.16 32.5493 74.68 30.8 74.68Z" fill="url(#paint1_linear_27_5320)"/>
<path d="M61.2627 84.28C62.3934 84.28 63.2894 83.8853 63.9508 83.096C64.6121 82.3067 64.9427 81.2187 64.9427 79.832C64.9427 78.1467 64.5374 76.7813 63.7267 75.736C62.9161 74.6693 61.7214 74.136 60.1427 74.136C59.0974 74.136 58.1161 74.456 57.1987 75.096V93.496L62.7668 94.712L61.7108 96.792H48.3988V95L51.4067 92.632V74.808L47.8547 73.72L48.9107 71.64H54.2228C56.1214 71.64 57.9881 71.576 59.8228 71.448C61.1881 71.3627 62.1908 71.32 62.8307 71.32C64.4948 71.32 65.9668 71.6507 67.2467 72.312C68.5267 72.952 69.5188 73.8373 70.2228 74.968C70.9268 76.0987 71.2788 77.3573 71.2788 78.744C71.2788 80.28 70.6921 81.72 69.5187 83.064C68.3454 84.408 66.8628 85.464 65.0708 86.232C63.2788 87 61.5294 87.3413 59.8228 87.256L58.4147 86.392L59.4707 84.312H61.2627V84.28Z" fill="url(#paint2_linear_27_5320)"/>
<path d="M93.9665 96.824H73.7425V95.032L76.7505 92.664V74.776L73.1985 73.72L74.2545 71.64H93.6465L95.9505 71.064V79.224L94.1905 79.928L90.2545 74.072H82.5425V82.712H86.3505L88.6865 79.128H90.4785V88.44L88.3985 89.496L86.3185 85.176H82.5425V94.36H89.9985L94.5105 87.832L96.2705 88.568V97.4L93.9665 96.824Z" fill="url(#paint3_linear_27_5320)"/>
<path d="M120.216 96.824H99.9925V95.032L103.001 92.664V74.776L99.4485 73.72L100.505 71.64H119.896L122.201 71.064V79.224L120.44 79.928L116.505 74.072H108.793V82.712H112.601L114.937 79.128H116.729V88.44L114.648 89.496L112.568 85.176H108.793V94.36H116.249L120.76 87.832L122.521 88.568V97.4L120.216 96.824Z" fill="url(#paint4_linear_27_5320)"/>
<path d="M141.122 71C142.36 71 143.8 71.16 145.442 71.48C147.106 71.8 148.322 72.1413 149.09 72.504V79.32H146.051C144.408 76.2267 142.146 74.68 139.267 74.68C138.093 74.68 137.016 75.0533 136.035 75.8C135.053 76.5467 134.275 77.5707 133.699 78.872C133.144 80.1733 132.867 81.6347 132.867 83.256C132.867 85.0907 133.144 86.776 133.699 88.312C134.275 89.8267 135.138 91.0427 136.29 91.96C137.442 92.856 138.872 93.304 140.578 93.304C142.52 93.304 145.283 92.2373 148.867 90.104L150.146 92.152L144.258 96.728C143.32 97.0053 142.413 97.1867 141.538 97.272C140.685 97.3787 139.768 97.432 138.786 97.432C136.397 97.432 134.275 96.888 132.419 95.8C130.562 94.712 129.123 93.2187 128.099 91.32C127.075 89.4 126.562 87.224 126.562 84.792C126.562 82.296 127.33 79.992 128.867 77.88C130.403 75.7467 132.312 74.072 134.594 72.856C136.877 71.6187 139.053 71 141.122 71Z" fill="url(#paint5_linear_27_5320)"/>
<defs>
<linearGradient id="paint0_linear_27_5320" x1="74.5618" y1="-50.7368" x2="142.063" y2="287.009" gradientUnits="userSpaceOnUse">
<stop stop-color="#FF9B63"/>
<stop offset="1" stop-color="#FF621F"/>
</linearGradient>
<linearGradient id="paint1_linear_27_5320" x1="76.2781" y1="61.9575" x2="78.594" y2="119.889" gradientUnits="userSpaceOnUse">
<stop stop-color="#FF9B63"/>
<stop offset="1" stop-color="#FF621F"/>
</linearGradient>
<linearGradient id="paint2_linear_27_5320" x1="76.2781" y1="61.9575" x2="78.594" y2="119.889" gradientUnits="userSpaceOnUse">
<stop stop-color="#FF9B63"/>
<stop offset="1" stop-color="#FF621F"/>
</linearGradient>
<linearGradient id="paint3_linear_27_5320" x1="76.2781" y1="61.9575" x2="78.594" y2="119.889" gradientUnits="userSpaceOnUse">
<stop stop-color="#FF9B63"/>
<stop offset="1" stop-color="#FF621F"/>
</linearGradient>
<linearGradient id="paint4_linear_27_5320" x1="76.2781" y1="61.9575" x2="78.594" y2="119.889" gradientUnits="userSpaceOnUse">
<stop stop-color="#FF9B63"/>
<stop offset="1" stop-color="#FF621F"/>
</linearGradient>
<linearGradient id="paint5_linear_27_5320" x1="76.2781" y1="61.9575" x2="78.594" y2="119.889" gradientUnits="userSpaceOnUse">
<stop stop-color="#FF9B63"/>
<stop offset="1" stop-color="#FF621F"/>
</linearGradient>
</defs>
</svg>
