<svg width="24" height="24" viewBox="0 0 24 24" fill="none" xmlns="http://www.w3.org/2000/svg">
<g clip-path="url(#clip0_72_554)">
<path d="M23.5324 0.46078C23.387 0.347837 23.2175 0.27013 23.037 0.233762C22.8566 0.197395 22.6702 0.203357 22.4924 0.25118L16.0924 1.93478C16.0268 1.95172 15.958 1.95172 15.8924 1.93478L8.2952 0.0351804C8.09942 -0.0131727 7.89464 -0.0116599 7.6996 0.0395804L0.8944 1.82998C0.638101 1.89748 0.411357 2.04792 0.249558 2.25784C0.0877589 2.46776 7.659e-06 2.72534 0 2.99038L0 22.588C6.65e-05 22.7716 0.0422581 22.9527 0.123327 23.1174C0.204396 23.2822 0.322181 23.4261 0.467615 23.5381C0.613049 23.6502 0.782254 23.7274 0.962207 23.7638C1.14216 23.8001 1.32806 23.7947 1.5056 23.748L7.9056 22.0644C7.97128 22.0481 8.03993 22.0481 8.1056 22.0644L15.708 23.9652C15.9038 24.0134 16.1085 24.0121 16.3036 23.9612L23.1088 22.1704C23.3647 22.1022 23.5909 21.9513 23.7521 21.7412C23.9133 21.5311 24.0004 21.2736 24 21.0088V1.41118C24.0006 1.22744 23.9587 1.04606 23.8776 0.88119C23.7964 0.716324 23.6783 0.572442 23.5324 0.46078ZM21.3908 18.2884L20.5732 18.0156C20.5229 17.9986 20.4792 17.9663 20.4482 17.9233C20.4171 17.8803 20.4003 17.8286 20.4 17.7756V17.0916C20.4002 17.031 20.4217 16.9725 20.4608 16.9262C20.4999 16.8799 20.5539 16.8488 20.6136 16.8384L23.2 16.4072V19.9164L22.304 19.6912C22.2486 19.6778 22.1995 19.6461 22.1646 19.6011C22.1297 19.5561 22.1111 19.5005 22.112 19.4436V19.2876C22.1122 19.0663 22.0427 18.8506 21.9132 18.6712C21.7837 18.4918 21.6009 18.3578 21.3908 18.2884ZM23.2 10.7996H21.616C21.4894 10.7992 21.364 10.7751 21.2464 10.7284L19.302 10.0084C19.0588 9.90998 18.8598 9.72642 18.742 9.49198L18.28 8.57158C18.1339 8.27889 17.9089 8.03283 17.6305 7.86109C17.352 7.68936 17.0311 7.59879 16.704 7.59958H16.4V4.97198L23.0216 1.08438C23.0292 1.0873 23.0367 1.09064 23.044 1.09438C23.0925 1.13173 23.1318 1.17971 23.1589 1.23463C23.1859 1.28956 23.2 1.34996 23.2 1.41118V10.7996ZM15.6 17.1936C15.4952 17.1872 15.3959 17.1446 15.319 17.0732C15.2421 17.0018 15.1922 16.906 15.178 16.802L14.8616 14.282C14.8106 13.8873 14.6177 13.5248 14.3188 13.2621C14.0199 12.9994 13.6355 12.8546 13.2376 12.8548C12.9122 12.8516 12.6009 12.7217 12.3698 12.4926C12.1387 12.2635 12.006 11.9533 12 11.628C12.0094 11.3036 12.143 10.9952 12.3734 10.7665C12.6037 10.5379 12.9131 10.4065 13.2376 10.3996C14.0341 10.4129 14.8266 10.5161 15.6 10.7072V17.1936ZM16.4 11.0908C16.4572 11.1445 16.5098 11.203 16.5572 11.2656L17.6056 12.6656C17.0043 13.3481 16.5891 14.1742 16.4 15.064V11.0908ZM15.6 9.88638C14.825 9.70672 14.033 9.61057 13.2376 9.59958C12.9688 9.59581 12.7019 9.64549 12.4525 9.74574C12.2031 9.84599 11.9761 9.99482 11.7846 10.1836C11.5932 10.3723 11.4412 10.5972 11.3375 10.8452C11.2337 11.0932 11.1803 11.3594 11.1803 11.6282C11.1803 11.897 11.2337 12.1631 11.3375 12.4111C11.4412 12.6591 11.5932 12.884 11.7846 13.0728C11.9761 13.2615 12.2031 13.4104 12.4525 13.5106C12.7019 13.6109 12.9688 13.6606 13.2376 13.6568C13.4408 13.6563 13.6371 13.7299 13.79 13.8637C13.9428 13.9976 14.0416 14.1825 14.068 14.384L14.3844 16.904C14.4246 17.2004 14.569 17.4729 14.7917 17.6727C15.0144 17.8724 15.3009 17.9865 15.6 17.9944V23.1144L8.4 21.3144V19.4184C8.4068 19.406 8.4152 19.3948 8.4216 19.382L9.72 16.7756C9.90391 16.3953 9.99962 15.9784 10 15.556V14.7068C10.0004 14.3293 9.87376 13.9627 9.64039 13.6661C9.40701 13.3694 9.08054 13.16 8.7136 13.0716C8.612 13.048 8.5048 13.0316 8.4 13.0096V0.88558L15.6 2.68558V4.51398L13.5292 5.72958C13.2529 5.88285 13.0354 6.12366 12.9109 6.41409C12.7864 6.70453 12.7621 7.0281 12.8416 7.3339C12.9212 7.6397 13.1002 7.91036 13.3505 8.10328C13.6007 8.29621 13.908 8.40044 14.224 8.39958H15.6V9.88638ZM8.4 13.8248C8.442 13.8336 8.4868 13.8404 8.5284 13.85C8.72024 13.8967 8.89078 14.0067 9.01259 14.1621C9.1344 14.3175 9.20041 14.5093 9.2 14.7068V15.556C9.19939 15.8569 9.13103 16.1539 9 16.4248L8.4 17.6292V13.8248ZM7.6 19.1448C7.54952 19.1804 7.48938 19.1998 7.4276 19.2004C7.34323 19.2002 7.26151 19.1709 7.19628 19.1174C7.13104 19.0639 7.08629 18.9895 7.0696 18.9068L6.738 17.2444C6.70016 17.0343 6.60306 16.8394 6.45813 16.6826C6.31321 16.5258 6.1265 16.4138 5.92 16.3596C5.60312 16.2809 5.32129 16.0993 5.11862 15.8433C4.91596 15.5873 4.80391 15.2713 4.8 14.9448C4.80733 14.5924 4.94978 14.2562 5.19791 14.0059C5.44604 13.7555 5.78087 13.6101 6.1332 13.5996C6.62355 13.5995 7.11343 13.63 7.6 13.6908V19.1448ZM16.4 2.68198L20.6056 1.57518L16.4 4.04438V2.68198ZM14.224 7.59958C14.0846 7.60029 13.9489 7.55431 13.8387 7.46898C13.7284 7.38364 13.6499 7.26386 13.6156 7.12871C13.5813 6.99357 13.5933 6.85084 13.6495 6.72326C13.7058 6.59569 13.8031 6.49061 13.926 6.42478L15.6 5.44198V7.59958H14.224ZM1.0984 2.60358L6 1.31358V4.80758C5.9993 4.89114 5.97555 4.97289 5.93137 5.04382C5.88719 5.11475 5.82429 5.17211 5.7496 5.20958C5.59408 5.28596 5.45618 5.39391 5.34467 5.52653C5.23317 5.65915 5.15051 5.81354 5.10197 5.97987C5.05343 6.14619 5.04006 6.32081 5.06272 6.49258C5.08539 6.66436 5.14358 6.82953 5.2336 6.97758L5.6816 7.72318C5.78559 7.89563 5.82314 8.10008 5.78721 8.29823C5.75128 8.49638 5.64433 8.67463 5.4864 8.79958L3.7068 10.2224C3.61211 10.2989 3.53466 10.3946 3.47952 10.5032C3.42438 10.6118 3.39278 10.7308 3.3868 10.8524C3.38171 10.99 3.40545 11.1271 3.45649 11.2549C3.50754 11.3828 3.58476 11.4985 3.6832 11.5948C3.72287 11.6384 3.74371 11.6959 3.7412 11.7548C3.7388 11.8218 3.70999 11.8852 3.66106 11.931C3.61212 11.9769 3.54704 12.0015 3.48 11.9996C3.18016 11.9835 2.89079 11.8839 2.64454 11.7121C2.39829 11.5403 2.20497 11.303 2.0864 11.0272L0.8 8.25518V2.99038C0.800018 2.902 0.829307 2.81611 0.883292 2.74613C0.937277 2.67616 1.01292 2.62603 1.0984 2.60358ZM1.3016 22.9748C1.24243 22.9903 1.18048 22.9921 1.12052 22.9799C1.06056 22.9678 1.00419 22.942 0.955737 22.9047C0.90729 22.8673 0.868057 22.8193 0.841058 22.7644C0.814059 22.7095 0.800013 22.6492 0.8 22.588V10.1556L1.36 11.3656C1.54516 11.7813 1.84379 12.1363 2.22162 12.39C2.59944 12.6437 3.04114 12.7856 3.496 12.7996C3.77279 12.7993 4.03815 12.6892 4.23387 12.4934C4.42959 12.2977 4.53968 12.0324 4.54 11.7556C4.54235 11.6205 4.51746 11.4864 4.4668 11.3612C4.41615 11.2359 4.34078 11.1222 4.2452 11.0268C4.22676 11.01 4.21191 10.9896 4.20153 10.9669C4.19115 10.9443 4.18546 10.9197 4.1848 10.8948C4.18494 10.885 4.18724 10.8754 4.19152 10.8666C4.19581 10.8578 4.20198 10.8501 4.2096 10.844L5.9844 9.42478C6.29428 9.17878 6.50396 8.82835 6.57426 8.439C6.64457 8.04965 6.57068 7.64802 6.3664 7.30918L5.92 6.56558C5.88689 6.51206 5.86543 6.45217 5.85701 6.3898C5.8486 6.32744 5.85341 6.264 5.87115 6.20362C5.88889 6.14324 5.91914 6.08727 5.95995 6.03937C6.00076 5.99146 6.05121 5.95269 6.108 5.92558C6.31501 5.82089 6.48913 5.66114 6.61122 5.46389C6.73331 5.26665 6.79863 5.03955 6.8 4.80758V1.10318L7.6 0.89238V12.884C7.11311 12.8275 6.62335 12.7994 6.1332 12.7996C5.56819 12.8086 5.02903 13.0379 4.63058 13.4386C4.23213 13.8393 4.00587 14.3797 4 14.9448C4.00494 15.4508 4.17785 15.9409 4.49157 16.338C4.80528 16.7352 5.24203 17.0168 5.7332 17.1388C5.79048 17.1576 5.84142 17.1919 5.88033 17.238C5.91924 17.284 5.94461 17.34 5.9536 17.3996L6.2852 19.0616C6.33811 19.3258 6.48077 19.5635 6.689 19.7345C6.89722 19.9054 7.15818 19.9991 7.4276 19.9996C7.48537 19.9993 7.54303 19.9943 7.6 19.9848V21.3172L1.3016 22.9748ZM22.9016 21.3956L16.4 23.1068V17.754C16.555 17.6434 16.6837 17.5001 16.7771 17.3342C16.8705 17.1683 16.9262 16.9838 16.9404 16.794C17.092 14.5876 17.8604 13.5596 18.1848 13.2204C18.314 13.078 18.3899 12.8953 18.3997 12.7034C18.4094 12.5114 18.3525 12.3219 18.2384 12.1672L17.1956 10.7836C16.985 10.5083 16.7124 10.2867 16.4 10.1368V8.39958H16.704C16.8829 8.39897 17.0583 8.44834 17.2107 8.54213C17.363 8.63591 17.486 8.77038 17.566 8.93038L18.026 9.85038C18.2333 10.2625 18.5845 10.5843 19.0132 10.7548L20.9624 11.4748C21.1705 11.5569 21.3922 11.5992 21.616 11.5996H23.2V15.6056C23.166 15.608 23.1324 15.6076 23.0984 15.6128L20.4832 16.0492C20.236 16.0894 20.0113 16.2164 19.8494 16.4075C19.6875 16.5986 19.599 16.8411 19.6 17.0916V17.7756C19.5994 17.9968 19.6688 18.2126 19.798 18.3922C19.9273 18.5718 20.11 18.7059 20.32 18.7756L21.1364 19.0476C21.1867 19.0646 21.2304 19.0969 21.2616 19.1399C21.2928 19.1829 21.3098 19.2345 21.3104 19.2876V19.4436C21.3099 19.6792 21.3884 19.9081 21.5335 20.0938C21.6785 20.2795 21.8817 20.4111 22.1104 20.4676L23.2 20.7408V21.0088C23.2 21.0972 23.1707 21.183 23.1167 21.253C23.0627 21.323 22.9871 21.3731 22.9016 21.3956Z" fill="white"/>
</g>
<defs>
<clipPath id="clip0_72_554">
<rect width="24" height="24" fill="white"/>
</clipPath>
</defs>
</svg>
