<svg width="24" height="24" viewBox="0 0 24 24" fill="none" xmlns="http://www.w3.org/2000/svg">
<path d="M2.00001 12.0002C2.00051 9.80776 2.72149 7.67627 4.052 5.93375C5.3825 4.19123 7.24878 2.93424 9.36361 2.35623C11.4784 1.77823 13.7246 1.91124 15.7565 2.73481C17.7883 3.55838 19.4932 5.02685 20.6087 6.91422C21.7243 8.8016 22.1886 11.0033 21.9304 13.1804C21.6721 15.3576 20.7056 17.3895 19.1794 18.9635C17.6533 20.5375 15.6521 21.5664 13.484 21.8917C11.3159 22.2171 9.10093 21.8209 7.18001 20.7642L3.29201 21.9482C3.11859 22.001 2.93408 22.0057 2.7582 21.9617C2.58232 21.9178 2.42169 21.8269 2.29351 21.6987C2.16532 21.5705 2.07439 21.4098 2.03044 21.234C1.98649 21.0581 1.99118 20.8736 2.04401 20.7002L3.22801 16.8062C2.41992 15.3334 1.99749 13.6801 2.00001 12.0002ZM8.00001 11.0002C8.00001 11.2654 8.10537 11.5197 8.2929 11.7073C8.48044 11.8948 8.7348 12.0002 9.00001 12.0002H15C15.2652 12.0002 15.5196 11.8948 15.7071 11.7073C15.8947 11.5197 16 11.2654 16 11.0002C16 10.7349 15.8947 10.4806 15.7071 10.293C15.5196 10.1055 15.2652 10.0002 15 10.0002H9.00001C8.7348 10.0002 8.48044 10.1055 8.2929 10.293C8.10537 10.4806 8.00001 10.7349 8.00001 11.0002ZM9.00001 14.0002C8.7348 14.0002 8.48044 14.1055 8.2929 14.293C8.10537 14.4806 8.00001 14.7349 8.00001 15.0002C8.00001 15.2654 8.10537 15.5197 8.2929 15.7073C8.48044 15.8948 8.7348 16.0002 9.00001 16.0002H13C13.2652 16.0002 13.5196 15.8948 13.7071 15.7073C13.8947 15.5197 14 15.2654 14 15.0002C14 14.7349 13.8947 14.4806 13.7071 14.293C13.5196 14.1055 13.2652 14.0002 13 14.0002H9.00001Z" fill="#FF7A2C"/>
</svg>
