<svg width="24" height="24" viewBox="0 0 24 24" fill="none" xmlns="http://www.w3.org/2000/svg">
<g clip-path="url(#clip0_85_3267)">
<path d="M7.10484 9.79359C7.01765 9.70641 6.89672 9.65625 6.77344 9.65625C6.65015 9.65625 6.52926 9.70636 6.44203 9.79359C6.35484 9.88078 6.30469 10.0017 6.30469 10.125C6.30469 10.2483 6.35484 10.3692 6.44203 10.4564C6.52922 10.5435 6.65015 10.5937 6.77344 10.5937C6.89672 10.5937 7.01765 10.5436 7.10484 10.4564C7.19203 10.3692 7.24218 10.2483 7.24218 10.125C7.24218 10.0017 7.19203 9.88078 7.10484 9.79359Z" fill="#FF7A2C"/>
<path d="M22.5935 0H3.93734C3.16194 0 2.5311 0.630841 2.5311 1.40624V9.18746C2.5311 9.96287 3.16194 10.5937 3.93734 10.5937H4.78109C5.03998 10.5937 5.24984 10.3838 5.24984 10.125C5.24984 9.86612 5.03998 9.65621 4.78109 9.65621H3.93734C3.67888 9.65621 3.4686 9.44593 3.4686 9.18746V1.40624C3.4686 1.14778 3.67888 0.937496 3.93734 0.937496H22.5935C22.852 0.937496 23.0623 1.14778 23.0623 1.40624V9.18746C23.0623 9.44593 22.852 9.65621 22.5935 9.65621H19.4582C19.3339 9.65621 19.2146 9.70562 19.1268 9.79351L17.5832 11.337L16.0397 9.79351C15.9518 9.70562 15.8325 9.65621 15.7082 9.65621H12.0527C12.0182 9.56771 11.9793 9.48038 11.9352 9.3947C11.5995 8.74262 11.0282 8.26605 10.3266 8.05272L9.6489 7.84666C9.41031 7.774 9.15662 7.90113 9.07178 8.13564L8.00687 11.0789C7.71152 11.8952 7.12896 12.5734 6.36658 12.9885L5.36693 13.5329C5.12126 13.2346 4.74931 13.0442 4.33367 13.0442H1.33837C0.600373 13.0442 1.09771e-08 13.6446 1.09771e-08 14.3826V22.6614C-9.37387e-05 23.3995 0.600326 23.9999 1.33832 23.9999H4.33362C4.80022 23.9999 5.21154 23.7598 5.45117 23.3967L5.92948 23.5843C6.63269 23.8602 7.37233 24 8.12781 24H14.4525C15.4015 24 16.1735 23.228 16.1735 22.279C16.1735 21.9649 16.0886 21.6704 15.941 21.4167C16.6391 21.1973 17.147 20.5441 17.147 19.7745C17.147 19.4524 17.0578 19.1508 16.9032 18.8928C17.5717 18.6563 18.052 18.0183 18.052 17.2699C18.052 16.4904 17.5308 15.8306 16.8188 15.6198C16.9636 15.3678 17.0468 15.0762 17.0468 14.7653C17.0468 13.8164 16.2748 13.0443 15.3258 13.0443H11.567L12.0927 11.4836C12.1909 11.1919 12.2374 10.8919 12.2342 10.5938H15.5141L17.2518 12.3315C17.3433 12.423 17.4633 12.4687 17.5832 12.4687C17.7032 12.4687 17.8232 12.423 17.9147 12.3315L19.6524 10.5937H22.5935C23.3689 10.5937 23.9998 9.96287 23.9998 9.18746V1.40624C23.9998 0.630841 23.3689 0 22.5935 0ZM4.73454 22.6615C4.7345 22.8826 4.55469 23.0624 4.33362 23.0624H1.33832C1.11726 23.0624 0.937449 22.8826 0.937449 22.6615V14.3826C0.937449 14.1616 1.11726 13.9817 1.33832 13.9817H2.36723V19.753C2.36723 20.0118 2.57708 20.2217 2.83597 20.2217C3.09486 20.2217 3.30472 20.0118 3.30472 19.753V13.9817H4.33362C4.5087 13.9817 4.65753 14.0947 4.71204 14.2515C4.71593 14.2742 4.72156 14.2967 4.72897 14.3189C4.73229 14.3398 4.73454 14.3609 4.73454 14.3826V22.6615ZM15.3259 13.9817V13.9817C15.7579 13.9817 16.1094 14.3332 16.1094 14.7652C16.1094 15.1973 15.7579 15.5488 15.3259 15.5488H12.7829C12.524 15.5488 12.3141 15.7587 12.3141 16.0175C12.3141 16.2764 12.524 16.4863 12.7829 16.4863L16.331 16.4864C16.763 16.4864 17.1145 16.8379 17.1145 17.2699C17.1145 17.7019 16.763 18.0535 16.331 18.0535H12.7829C12.524 18.0535 12.3141 18.2634 12.3141 18.5222C12.3141 18.7811 12.524 18.991 12.7829 18.991H15.426C15.8581 18.991 16.2095 19.3424 16.2095 19.7745C16.2095 20.2065 15.8581 20.558 15.426 20.558H12.7829C12.524 20.558 12.3141 20.7679 12.3141 21.0267C12.3141 21.2856 12.524 21.4955 12.7829 21.4955H14.4526C14.8846 21.4955 15.2361 21.847 15.2361 22.279C15.2361 22.7111 14.8846 23.0625 14.4526 23.0625H8.12781C7.48999 23.0625 6.86552 22.9444 6.27176 22.7116L5.67199 22.4764V14.4342L6.81485 13.8119C7.77864 13.2871 8.515 12.4298 8.88835 11.3978L9.8019 8.87307L10.0539 8.94967C10.5109 9.08865 10.883 9.39906 11.1016 9.82374C11.3203 10.2484 11.3567 10.7317 11.2042 11.1843L10.4703 13.3633C10.4221 13.5064 10.4458 13.6639 10.5338 13.7864C10.6219 13.909 10.7635 13.9817 10.9145 13.9817H15.3259Z" fill="#FF7A2C"/>
<path d="M21.8531 4.54612C21.7643 4.27312 21.5326 4.07789 21.2485 4.03668L20.4194 3.91645L20.0483 3.16528C19.9212 2.90789 19.664 2.74805 19.377 2.74805H19.3768C19.0897 2.74814 18.8324 2.90812 18.7054 3.16561L18.3348 3.91701L17.5057 4.03771C17.2216 4.0791 16.99 4.27443 16.9014 4.54752C16.8128 4.82057 16.8854 5.11471 17.0911 5.3151L17.6912 5.89972L17.5498 6.72552C17.5013 7.00855 17.6155 7.28909 17.8479 7.45784C17.9791 7.55314 18.1326 7.60151 18.2872 7.60151C18.4062 7.60151 18.5259 7.57278 18.6365 7.51461L19.378 7.12451L20.1197 7.51418C20.3739 7.64768 20.676 7.62579 20.9083 7.45695C21.1405 7.28811 21.2546 7.00747 21.206 6.72448L21.0641 5.89878L21.664 5.31379C21.8693 5.11326 21.9418 4.81912 21.8531 4.54612ZM20.3384 5.29691C20.1619 5.46899 20.0815 5.71682 20.1232 5.95977L20.2171 6.50642L19.7259 6.24833C19.5077 6.13386 19.2472 6.13386 19.0292 6.24861L18.5383 6.50689L18.6319 5.96019C18.6735 5.71714 18.5929 5.46936 18.4163 5.29738L18.019 4.91029L18.5679 4.83037C18.8119 4.79488 19.0226 4.6417 19.1316 4.42063L19.377 3.92315L19.6226 4.42049C19.7318 4.64151 19.9426 4.79455 20.1865 4.82994L20.7355 4.90954L20.3384 5.29691Z" fill="#FF7A2C"/>
<path d="M15.8902 4.54612C15.8014 4.27312 15.5697 4.07793 15.2856 4.03668L14.4565 3.91645L14.0855 3.16528C13.9583 2.90789 13.7011 2.74805 13.4141 2.74805H13.4139C13.1268 2.74814 12.8695 2.90812 12.7425 3.16565L12.3719 3.91701L11.5428 4.03771C11.2587 4.0791 11.0272 4.27443 10.9385 4.54752C10.8499 4.82057 10.9225 5.11471 11.1282 5.3151L11.7283 5.89972L11.5869 6.72552C11.5384 7.00855 11.6526 7.28914 11.885 7.45784C12.0162 7.55314 12.1697 7.60151 12.3242 7.60151C12.4433 7.60151 12.563 7.57278 12.6735 7.51461L13.415 7.12451L14.1568 7.51418C14.411 7.64768 14.7131 7.62579 14.9454 7.45695C15.1776 7.28811 15.2916 7.00747 15.243 6.72448L15.1012 5.89878L15.701 5.31379C15.9065 5.11326 15.979 4.81916 15.8902 4.54612ZM14.3755 5.29691C14.199 5.46899 14.1186 5.71682 14.1604 5.95977L14.2542 6.50642L13.763 6.24838C13.5447 6.13377 13.2843 6.13391 13.0663 6.24861L12.5753 6.50689L12.6689 5.96019C12.7106 5.71714 12.63 5.46936 12.4534 5.29738L12.0561 4.91029L12.605 4.83037C12.8489 4.79488 13.0596 4.64174 13.1687 4.42059L13.4141 3.9231L13.6596 4.4204C13.7688 4.64146 13.9796 4.79455 14.2236 4.82994L14.7725 4.90954L14.3755 5.29691Z" fill="#FF7A2C"/>
<path d="M9.92684 4.54612C9.83801 4.27312 9.60636 4.07789 9.32225 4.03668L8.49313 3.91645L8.12211 3.16528C7.99499 2.90789 7.73778 2.74805 7.45072 2.74805H7.45054C7.16343 2.74814 6.90613 2.90812 6.77915 3.16565L6.4086 3.91701L5.57948 4.03771C5.29532 4.0791 5.06381 4.27448 4.97512 4.54757C4.88648 4.82062 4.95919 5.11476 5.16483 5.3151L5.76492 5.89972L5.6235 6.72552C5.57503 7.00855 5.68926 7.28914 5.92157 7.45784C6.05278 7.55314 6.20629 7.60151 6.36084 7.60151C6.4799 7.60151 6.59957 7.57278 6.71015 7.51461L7.45166 7.12451L8.19336 7.51418C8.44752 7.64768 8.74967 7.62579 8.98194 7.45695C9.21415 7.28811 9.3282 7.00747 9.27959 6.72448L9.13775 5.89878L9.7376 5.31379C9.94315 5.11326 10.0156 4.81916 9.92684 4.54612ZM8.41217 5.29691C8.23569 5.46899 8.1553 5.71682 8.19702 5.95977L8.29091 6.50642L7.79971 6.24838C7.58146 6.13377 7.32088 6.13391 7.10291 6.24861L6.61199 6.50689L6.70565 5.96005C6.74718 5.7171 6.6666 5.46941 6.49007 5.29738L6.09271 4.91029L6.64162 4.83037C6.88555 4.79488 7.09626 4.64174 7.20538 4.42059L7.45072 3.9231L7.6963 4.4204C7.80542 4.64146 8.01627 4.79455 8.26025 4.82994L8.80925 4.90954L8.41217 5.29691Z" fill="#FF7A2C"/>
<path d="M2.83594 20.9697C2.57705 20.9697 2.36719 21.1796 2.36719 21.4385V21.4458C2.36719 21.7046 2.57705 21.9145 2.83594 21.9145C3.09483 21.9145 3.30468 21.7046 3.30468 21.4458V21.4385C3.30468 21.1796 3.09483 20.9697 2.83594 20.9697Z" fill="#FF7A2C"/>
</g>
<defs>
<clipPath id="clip0_85_3267">
<rect width="24" height="24" fill="white"/>
</clipPath>
</defs>
</svg>
