<svg width="24" height="24" viewBox="0 0 24 24" fill="none" xmlns="http://www.w3.org/2000/svg">
<mask id="path-1-inside-1_108_36" fill="white">
<path d="M18.7273 13.9273C17.7818 12.9819 16.3636 12.6546 15.0909 13.1273L13.8182 11.8182L16.0364 9.60006L17.0182 9.78188H17.0909C17.2 9.78188 17.3455 9.70916 17.4182 9.60006L18.9818 6.98188C19.0545 6.83643 19.0545 6.65461 18.9091 6.54552L17.6 5.23643C17.4909 5.12734 17.3091 5.09097 17.1636 5.20006L14.5455 6.7637C14.4364 6.83643 14.3636 6.98188 14.3636 7.12734L14.5455 8.14552L12.3273 10.3637L11.0545 9.05461C11.4909 7.78188 11.2 6.3637 10.2545 5.41825C9.27273 4.43643 7.78182 4.10916 6.47273 4.65461C6.43637 4.69097 6.4 4.69097 6.36364 4.72734C6.32728 4.7637 6.32728 4.80006 6.29091 4.83643V4.87279V4.90916V4.98188C6.29091 5.01825 6.29091 5.05461 6.32728 5.12734C6.32728 5.1637 6.36364 5.20006 6.4 5.23643L7.96364 6.80006L7.70909 7.70916L6.8 7.9637L5.23637 6.40006C5.2 6.3637 5.16364 6.32734 5.12728 6.32734C5.12728 6.32734 5.12728 6.32734 5.09091 6.32734C5.05455 6.32734 5.01818 6.29097 4.98182 6.29097C4.94546 6.29097 4.94546 6.29097 4.90909 6.29097C4.87273 6.29097 4.87273 6.29097 4.87273 6.29097C4.87273 6.29097 4.87273 6.29097 4.83637 6.29097C4.8 6.29097 4.76364 6.32734 4.72728 6.3637C4.69091 6.40006 4.69091 6.43643 4.65455 6.47279C4.10909 7.78188 4.43637 9.27279 5.41818 10.2546C6.07273 10.9092 6.98182 11.2728 7.89091 11.2728C8.29091 11.2728 8.69091 11.2001 9.05455 11.0546L10.3273 12.3637L9.41819 13.2728C9.27273 13.1637 9.09091 13.091 8.87273 13.091C8.61819 13.091 8.4 13.2001 8.21819 13.3819L5.78182 15.8546C5.12728 16.5092 5.12728 17.5637 5.78182 18.2182L6 18.4364C6.32728 18.7637 6.72728 18.9092 7.16364 18.9092C7.6 18.9092 8.03637 18.7273 8.32728 18.4364L10.7636 15.9637C11.0909 15.6364 11.1273 15.1273 10.8727 14.7637L11.7818 13.8546L13.0545 15.1273C12.6182 16.4001 12.9091 17.8182 13.8545 18.7637C14.5091 19.4182 15.4182 19.7819 16.3273 19.7819C16.7636 19.7819 17.2364 19.7092 17.6364 19.5273C17.6727 19.5273 17.7091 19.491 17.7455 19.4546C17.7818 19.4182 17.8182 19.3819 17.8182 19.3455C17.8182 19.3092 17.8182 19.3092 17.8182 19.2728C17.8182 19.2364 17.8182 19.2364 17.8182 19.2001C17.8182 19.1637 17.8182 19.1273 17.7818 19.091C17.7818 19.0546 17.7455 19.0182 17.7091 18.9819L16.1455 17.4546L16.4 16.5455L17.3091 16.291L18.8727 17.8546C18.9091 17.891 18.9455 17.9273 18.9818 17.9273C19.0182 17.9273 19.0545 17.9637 19.0909 17.9637H19.1636H19.2H19.2364C19.2727 17.9637 19.3091 17.9273 19.3455 17.891C19.3818 17.8546 19.4182 17.8182 19.4182 17.7819C20 16.4001 19.7091 14.9092 18.7273 13.9273ZM18.9455 16.8728L17.6727 15.6001C17.5636 15.491 17.4545 15.491 17.3091 15.5273L16 15.891C15.8909 15.9273 15.7818 16.0364 15.7455 16.1455L15.3818 17.4546C15.3455 17.5637 15.3818 17.7092 15.4545 17.8182L16.7273 19.091C15.8545 19.2728 14.9455 18.9819 14.2909 18.3273C13.4909 17.5273 13.2727 16.291 13.7091 15.2364C13.7455 15.1273 13.7455 14.9819 13.6727 14.8728C13.6727 14.8728 13.6364 14.8364 13.6364 14.8001L10.9455 12.1092L9.23637 10.4001L9.2 10.3637C9.09091 10.291 8.98182 10.291 8.83637 10.3273C8.47273 10.4728 8.10909 10.5455 7.74546 10.5455C7.01818 10.5455 6.32728 10.2546 5.78182 9.74552C5.12728 9.09097 4.87273 8.18188 5.01819 7.30916L6.29091 8.58188L6.36364 8.65461H6.4H6.50909H6.61819L7.92728 8.29097C8.03637 8.25461 8.14546 8.14552 8.18182 8.03643L8.54546 6.72734C8.58182 6.58188 8.54546 6.47279 8.47273 6.3637L7.2 5.09097C8.07273 4.94552 8.98182 5.20006 9.63637 5.85461C10.4364 6.65461 10.6545 7.89097 10.2182 8.94552C10.1818 9.05461 10.1818 9.20006 10.2545 9.30916C10.2545 9.30916 10.2545 9.34552 10.2909 9.34552L12 11.0546L12.9818 12.0364L14.6909 13.7455C14.6909 13.7455 14.7273 13.7819 14.7636 13.7819C14.8 13.7819 14.8 13.8182 14.8364 13.8182C14.8727 13.8182 14.9091 13.8546 14.9818 13.8546C15.0182 13.8546 15.0909 13.8546 15.1273 13.8182C16.1455 13.3455 17.3818 13.6001 18.1818 14.4001C18.8364 15.091 19.1273 16.0001 18.9455 16.8728Z"/>
</mask>
<path d="M18.7273 13.9273C17.7818 12.9819 16.3636 12.6546 15.0909 13.1273L13.8182 11.8182L16.0364 9.60006L17.0182 9.78188H17.0909C17.2 9.78188 17.3455 9.70916 17.4182 9.60006L18.9818 6.98188C19.0545 6.83643 19.0545 6.65461 18.9091 6.54552L17.6 5.23643C17.4909 5.12734 17.3091 5.09097 17.1636 5.20006L14.5455 6.7637C14.4364 6.83643 14.3636 6.98188 14.3636 7.12734L14.5455 8.14552L12.3273 10.3637L11.0545 9.05461C11.4909 7.78188 11.2 6.3637 10.2545 5.41825C9.27273 4.43643 7.78182 4.10916 6.47273 4.65461C6.43637 4.69097 6.4 4.69097 6.36364 4.72734C6.32728 4.7637 6.32728 4.80006 6.29091 4.83643V4.87279V4.90916V4.98188C6.29091 5.01825 6.29091 5.05461 6.32728 5.12734C6.32728 5.1637 6.36364 5.20006 6.4 5.23643L7.96364 6.80006L7.70909 7.70916L6.8 7.9637L5.23637 6.40006C5.2 6.3637 5.16364 6.32734 5.12728 6.32734C5.12728 6.32734 5.12728 6.32734 5.09091 6.32734C5.05455 6.32734 5.01818 6.29097 4.98182 6.29097C4.94546 6.29097 4.94546 6.29097 4.90909 6.29097C4.87273 6.29097 4.87273 6.29097 4.87273 6.29097C4.87273 6.29097 4.87273 6.29097 4.83637 6.29097C4.8 6.29097 4.76364 6.32734 4.72728 6.3637C4.69091 6.40006 4.69091 6.43643 4.65455 6.47279C4.10909 7.78188 4.43637 9.27279 5.41818 10.2546C6.07273 10.9092 6.98182 11.2728 7.89091 11.2728C8.29091 11.2728 8.69091 11.2001 9.05455 11.0546L10.3273 12.3637L9.41819 13.2728C9.27273 13.1637 9.09091 13.091 8.87273 13.091C8.61819 13.091 8.4 13.2001 8.21819 13.3819L5.78182 15.8546C5.12728 16.5092 5.12728 17.5637 5.78182 18.2182L6 18.4364C6.32728 18.7637 6.72728 18.9092 7.16364 18.9092C7.6 18.9092 8.03637 18.7273 8.32728 18.4364L10.7636 15.9637C11.0909 15.6364 11.1273 15.1273 10.8727 14.7637L11.7818 13.8546L13.0545 15.1273C12.6182 16.4001 12.9091 17.8182 13.8545 18.7637C14.5091 19.4182 15.4182 19.7819 16.3273 19.7819C16.7636 19.7819 17.2364 19.7092 17.6364 19.5273C17.6727 19.5273 17.7091 19.491 17.7455 19.4546C17.7818 19.4182 17.8182 19.3819 17.8182 19.3455C17.8182 19.3092 17.8182 19.3092 17.8182 19.2728C17.8182 19.2364 17.8182 19.2364 17.8182 19.2001C17.8182 19.1637 17.8182 19.1273 17.7818 19.091C17.7818 19.0546 17.7455 19.0182 17.7091 18.9819L16.1455 17.4546L16.4 16.5455L17.3091 16.291L18.8727 17.8546C18.9091 17.891 18.9455 17.9273 18.9818 17.9273C19.0182 17.9273 19.0545 17.9637 19.0909 17.9637H19.1636H19.2H19.2364C19.2727 17.9637 19.3091 17.9273 19.3455 17.891C19.3818 17.8546 19.4182 17.8182 19.4182 17.7819C20 16.4001 19.7091 14.9092 18.7273 13.9273ZM18.9455 16.8728L17.6727 15.6001C17.5636 15.491 17.4545 15.491 17.3091 15.5273L16 15.891C15.8909 15.9273 15.7818 16.0364 15.7455 16.1455L15.3818 17.4546C15.3455 17.5637 15.3818 17.7092 15.4545 17.8182L16.7273 19.091C15.8545 19.2728 14.9455 18.9819 14.2909 18.3273C13.4909 17.5273 13.2727 16.291 13.7091 15.2364C13.7455 15.1273 13.7455 14.9819 13.6727 14.8728C13.6727 14.8728 13.6364 14.8364 13.6364 14.8001L10.9455 12.1092L9.23637 10.4001L9.2 10.3637C9.09091 10.291 8.98182 10.291 8.83637 10.3273C8.47273 10.4728 8.10909 10.5455 7.74546 10.5455C7.01818 10.5455 6.32728 10.2546 5.78182 9.74552C5.12728 9.09097 4.87273 8.18188 5.01819 7.30916L6.29091 8.58188L6.36364 8.65461H6.4H6.50909H6.61819L7.92728 8.29097C8.03637 8.25461 8.14546 8.14552 8.18182 8.03643L8.54546 6.72734C8.58182 6.58188 8.54546 6.47279 8.47273 6.3637L7.2 5.09097C8.07273 4.94552 8.98182 5.20006 9.63637 5.85461C10.4364 6.65461 10.6545 7.89097 10.2182 8.94552C10.1818 9.05461 10.1818 9.20006 10.2545 9.30916C10.2545 9.30916 10.2545 9.34552 10.2909 9.34552L12 11.0546L12.9818 12.0364L14.6909 13.7455C14.6909 13.7455 14.7273 13.7819 14.7636 13.7819C14.8 13.7819 14.8 13.8182 14.8364 13.8182C14.8727 13.8182 14.9091 13.8546 14.9818 13.8546C15.0182 13.8546 15.0909 13.8546 15.1273 13.8182C16.1455 13.3455 17.3818 13.6001 18.1818 14.4001C18.8364 15.091 19.1273 16.0001 18.9455 16.8728Z" stroke="#6F6F6F" stroke-width="1.2" mask="url(#path-1-inside-1_108_36)"/>
<path d="M22.6546 12.1092C22.6546 6.80007 18.6909 2.25461 13.4546 1.52734C13.2727 1.49097 13.0909 1.63643 13.0546 1.81825C13.0182 2.03643 13.1636 2.18188 13.3455 2.21825C18.2182 2.87279 21.8909 7.12734 21.8909 12.0728C21.8909 16.7637 18.5818 20.8001 14.1091 21.7819L14.6546 20.8364C14.7636 20.6546 14.6909 20.4364 14.5091 20.3273C14.3273 20.2182 14.1091 20.291 14 20.4728L13.0909 22.1455V22.1819C13.0909 22.2182 13.0546 22.2182 13.0546 22.2546V22.3273V22.3637V22.4001C13.0546 22.4364 13.0546 22.4364 13.0909 22.4728C13.0909 22.5092 13.0909 22.5092 13.1273 22.5455L13.1636 22.5819L13.2 22.6182C13.2 22.6182 13.2 22.6182 13.2364 22.6546L14.8727 23.6001C14.9091 23.6364 14.9818 23.6364 15.0182 23.6364C15.1273 23.6364 15.2727 23.5637 15.3455 23.4546C15.4546 23.2728 15.3818 23.0546 15.2 22.9455L14.4364 22.5092C19.1636 21.3819 22.6546 17.091 22.6546 12.1092Z" fill="#6F6F6F"/>
<path d="M10.6182 21.9637C5.74546 21.3091 2.07273 17.0546 2.07273 12.1091C2.07273 7.49096 5.27273 3.49096 9.67273 2.43642L9.12728 3.12733C9.01818 3.27278 9.01818 3.52733 9.2 3.63642C9.27273 3.67278 9.34546 3.70915 9.41818 3.70915C9.52728 3.70915 9.63637 3.67278 9.70909 3.56369L10.8727 2.10915C10.9091 2.07278 10.9455 2.00005 10.9455 1.92733C10.9455 1.89096 10.9455 1.8546 10.9455 1.81824C10.9455 1.78187 10.9455 1.81824 10.9455 1.78187C10.9455 1.74551 10.9455 1.70915 10.9091 1.67278C10.9091 1.67278 10.9091 1.67278 10.9091 1.63642C10.9091 1.60005 10.8727 1.56369 10.8364 1.56369L9.38182 0.400055C9.23637 0.2546 8.98182 0.290964 8.87273 0.472782C8.72727 0.6546 8.72727 0.872782 8.90909 1.01824L9.74546 1.67278C4.90909 2.72733 1.38182 7.0546 1.38182 12.1091C1.38182 17.4182 5.34546 21.9637 10.5455 22.691H10.5818C10.7636 22.691 10.9091 22.5455 10.9455 22.3637C10.9818 22.1819 10.8364 22.0001 10.6182 21.9637Z" fill="#6F6F6F"/>
</svg>
