<svg width="24" height="24" viewBox="0 0 24 24" fill="none" xmlns="http://www.w3.org/2000/svg">
<path d="M6 8H10" stroke="#FF7A2C" stroke-width="1.2" stroke-linecap="round" stroke-linejoin="round"/>
<path d="M20.833 9H18.231C16.446 9 15 10.343 15 12C15 13.657 16.447 15 18.23 15H20.833C20.917 15 20.958 15 20.993 14.998C21.533 14.965 21.963 14.566 21.998 14.065C22 14.033 22 13.994 22 13.917V10.083C22 10.006 22 9.967 21.998 9.935C21.962 9.434 21.533 9.035 20.993 9.002C20.959 9 20.917 9 20.833 9Z" stroke="#FF7A2C" stroke-width="1.2"/>
<path d="M20.9655 9C20.8875 7.128 20.6375 5.98 19.8285 5.172C18.6575 4 16.7715 4 13.0005 4H10.0005C6.22949 4 4.34349 4 3.17249 5.172C2.00049 6.343 2.00049 8.229 2.00049 12C2.00049 15.771 2.00049 17.657 3.17249 18.828C4.34349 20 6.22949 20 10.0005 20H13.0005C16.7715 20 18.6575 20 19.8285 18.828C20.6375 18.02 20.8885 16.872 20.9655 15" stroke="#FF7A2C" stroke-width="1.2"/>
<path d="M17.9917 12H18.0017" stroke="#FF7A2C" stroke-width="2" stroke-linecap="round" stroke-linejoin="round"/>
</svg>
