<svg width="25" height="24" viewBox="0 0 25 24" fill="none" xmlns="http://www.w3.org/2000/svg">
<path d="M12.4998 10.2V3M12.4998 3L15.1998 5.7M12.4998 3L9.7998 5.7" stroke="#FF7A2C" stroke-width="1.25" stroke-linecap="round" stroke-linejoin="round"/>
<path d="M3.5 12.9004H6.344C7.1585 12.9004 7.5662 12.9004 7.9244 13.0651C8.2826 13.2298 8.5472 13.5394 9.0773 14.1577L9.6227 14.7931C10.1528 15.4114 10.4174 15.721 10.7756 15.8857C11.1338 16.0504 11.5406 16.0504 12.356 16.0504H12.644C13.4585 16.0504 13.8662 16.0504 14.2244 15.8857C14.5826 15.721 14.8472 15.4114 15.3773 14.7931L15.9227 14.1577C16.4528 13.5394 16.7174 13.2298 17.0756 13.0651C17.4338 12.9004 17.8406 12.9004 18.656 12.9004H21.5" stroke="#FF7A2C" stroke-width="1.25" stroke-linecap="round"/>
<path d="M21.5 12C21.5 16.2426 21.5 18.3639 20.1815 19.6824C18.8648 21 16.7426 21 12.5 21C8.2574 21 6.1361 21 4.8176 19.6824C3.5 18.363 3.5 16.2426 3.5 12C3.5 7.75736 3.5 5.63696 4.8176 4.31846C5.5529 3.58316 6.5366 3.25826 8 3.11426M17 3.11426C18.4625 3.25826 19.448 3.58316 20.1815 4.31846C21.0581 5.19416 21.3515 6.42626 21.4505 8.39996" stroke="#FF7A2C" stroke-width="1.25" stroke-linecap="round"/>
</svg>
