<svg width="21" height="20" viewBox="0 0 21 20" fill="none" xmlns="http://www.w3.org/2000/svg">
<path d="M16.4083 12.0342V15.7342C16.4081 16.2577 16.2001 16.7597 15.8299 17.1299C15.4597 17.5001 14.9577 17.7081 14.4342 17.7084H4.76668C4.50648 17.7082 4.24886 17.6567 4.00863 17.5567C3.7684 17.4568 3.55029 17.3103 3.36684 17.1258C3.18339 16.9412 3.03822 16.7223 2.93965 16.4815C2.84109 16.2406 2.79109 15.9827 2.79252 15.7225V6.06586C2.79097 5.80606 2.84099 5.54854 2.9397 5.30823C3.0384 5.06791 3.18382 4.84957 3.36753 4.66587C3.55123 4.48216 3.76957 4.33674 4.00989 4.23804C4.2502 4.13933 4.50772 4.08931 4.76752 4.09086H8.46668" stroke="white" stroke-linecap="round" stroke-linejoin="round"/>
<path d="M16.4083 7.49604L13.0041 4.09104M6.1958 13.1694V11.3652C6.19747 11.0677 6.3158 10.7819 6.52497 10.571L14.4683 2.62771C14.5738 2.52133 14.6993 2.4369 14.8377 2.37928C14.976 2.32166 15.1243 2.29199 15.2741 2.29199C15.424 2.29199 15.5723 2.32166 15.7106 2.37928C15.8489 2.4369 15.9745 2.52133 16.08 2.62771L17.8725 4.42021C17.979 4.52561 18.0637 4.6511 18.1214 4.78942C18.1792 4.92774 18.2089 5.07615 18.2089 5.22604C18.2089 5.37593 18.1792 5.52434 18.1214 5.66266C18.0637 5.80098 17.979 5.92647 17.8725 6.03187L9.92913 13.9752C9.71786 14.1849 9.43263 14.3031 9.13497 14.3044H7.3308C7.02978 14.3044 6.74109 14.1848 6.52823 13.9719C6.31538 13.7591 6.1958 13.4704 6.1958 13.1694Z" stroke="white" stroke-linecap="round" stroke-linejoin="round"/>
</svg>
